<?xml version="1.0" encoding="utf-8" standalone="yes"?>
<!DOCTYPE svg PUBLIC "-//W3C//DTD SVG 1.1//EN" "http://www.w3.org/Graphics/SVG/1.1/DTD/svg11.dtd">
<svg width="912" height="1092" viewBox="0 0 912 1092" style="fill:none;stroke:none;fill-rule:evenodd;clip-rule:evenodd;stroke-linecap:round;stroke-linejoin:round;stroke-miterlimit:1.5;" version="1.1" xmlns="http://www.w3.org/2000/svg" xmlns:xlink="http://www.w3.org/1999/xlink"><style class="text-font-style fontImports" data-font-family="Roboto">@import url('https://fonts.googleapis.com/css2?family=Roboto:wght@400;700&amp;display=block');</style><g id="items" style="isolation: isolate"><g id="blend" style="mix-blend-mode: normal"><g id="g-root-cp_1_g-1_1qd8iksx2kiry-fill" data-item-order="-860530" transform="translate(392, 110)"><g id="cp_1_g-1_1qd8iksx2kiry-fill" stroke="none" fill="#4e88e7"><g><path d="M 52 94C 75.196 94 94 75.196 94 52C 94 28.804 75.196 10 52 10C 28.804 10 10 28.804 10 52C 10 75.196 28.804 94 52 94ZM 52 78.25C 66.4975 78.25 78.25 66.4975 78.25 52C 78.25 37.5025 66.4975 25.75 52 25.75C 37.5025 25.75 25.75 37.5025 25.75 52C 25.75 66.4975 37.5025 78.25 52 78.25Z"></path></g></g></g><g id="g-root-sy_1_Subtract_1hhlibwx2kkcg-fill" data-item-order="-860523" transform="translate(476, 152)"></g><g id="g-root-sy_1_Subtract-start_18lyi30x2kl55-fill" data-item-order="-860521" transform="translate(515.375, 149.375)"></g><g id="g-root-sy_1_Subtract_1_18lyi30x2kl56-fill" data-item-order="-860517" transform="translate(353, 152)"></g><g id="g-root-sy_1_Subtract-start_1_146rh1ox2kirn-fill" data-item-order="-860515" transform="translate(347, 149)"></g><g id="g-root-cp_1_lines_vb4gssx2kjkc-fill" data-item-order="-860502" transform="translate(426, 193.25)"><g id="cp_1_lines_vb4gssx2kjkc-fill" stroke="none" fill="#4e88e7"><g><path d="M 18 10.7871C 15.2656 10.7871 12.5913 10.5167 10 10L 10 16L 26 16L 26 10.000001C 23.4087 10.5167 20.7344 10.7871 18 10.7871ZM 18 58.7129C 15.2656 58.7129 12.5913 58.9833 10 59.5L 10 53.5L 26 53.5L 26 59.5C 23.4087 58.9833 20.7344 58.7129 18 58.7129ZM 26 53.5L 26 16L 10 16L 10 53.5L 26 53.5Z"></path></g></g></g><g id="g-root-cp_2_g-2_qvayocx2kkcm-fill" data-item-order="-860472" transform="translate(392, 242)"><g id="cp_2_g-2_qvayocx2kkcm-fill" stroke="none" fill="#1eabda"><g><path d="M 52 94C 75.196 94 94 75.196 94 52C 94 28.804 75.196 10 52 10C 28.804 10 10 28.804 10 52C 10 75.196 28.804 94 52 94ZM 52 78.25C 66.4975 78.25 78.25 66.4975 78.25 52C 78.25 37.5025 66.4975 25.75 52 25.75C 37.5025 25.75 25.75 37.5025 25.75 52C 25.75 66.4975 37.5025 78.25 52 78.25Z"></path></g></g></g><g id="g-root-sy_2_Subtract_mfhgjwx2kl4w-fill" data-item-order="-860465" transform="translate(476, 284)"></g><g id="g-root-sy_2_Subtract-start_dkgxe4x2kirt-fill" data-item-order="-860463" transform="translate(515.375, 281.375)"></g><g id="g-root-sy_2_Subtract_1_94nf9ox2kjk2-fill" data-item-order="-860459" transform="translate(353, 284)"></g><g id="g-root-sy_2_Subtract-start_1_90f0sx2kkcr-fill" data-item-order="-860457" transform="translate(347, 281)"></g><g id="g-root-cp_2_lines_1_1uuayvgx2kkxw-fill" data-item-order="-860450" transform="translate(426, 325.25)"><g id="cp_2_lines_1_1uuayvgx2kkxw-fill" stroke="none" fill="#1eabda"><g><path d="M 18 10.7871C 15.2656 10.7871 12.5913 10.5167 10 10L 10 16L 26 16L 26 10.000001C 23.4087 10.5167 20.7344 10.7871 18 10.7871ZM 18 58.7129C 15.2656 58.7129 12.5913 58.9833 10 59.5L 10 53.5L 26 53.5L 26 59.5C 23.4087 58.9833 20.7344 58.7129 18 58.7129ZM 26 53.5L 26 16L 10 16L 10 53.5L 26 53.5Z"></path></g></g></g><g id="g-root-cp_3_g-3_1lzafpox2kiku-fill" data-item-order="-860428" transform="translate(392, 374)"><g id="cp_3_g-3_1lzafpox2kiku-fill" stroke="none" fill="#3cc583"><g><path d="M 52 94C 75.196 94 94 75.196 94 52C 94 28.804 75.196 10 52 10C 28.804 10 10 28.804 10 52C 10 75.196 28.804 94 52 94ZM 52 78.25C 66.4975 78.25 78.25 66.4975 78.25 52C 78.25 37.5025 66.4975 25.75 52 25.75C 37.5025 25.75 25.75 37.5025 25.75 52C 25.75 66.4975 37.5025 78.25 52 78.25Z"></path></g></g></g><g id="g-root-sy_3_Subtract_1hjgxl8x2kjd4-fill" data-item-order="-860421" transform="translate(476, 416)"></g><g id="g-root-sy_3_Subtract-start_1d3nfgsx2kk5d-fill" data-item-order="-860419" transform="translate(515.375, 413.375)"></g><g id="g-root-sy_3_Subtract_1_1480f7wx2kky2-fill" data-item-order="-860415" transform="translate(353, 416)"></g><g id="g-root-sy_3_Subtract-start_1_zitsssx2lx4z-fill" data-item-order="-860413" transform="translate(347, 413)"></g><g id="g-root-cp_3_lines_2_qn6sjwx2lxxo-fill" data-item-order="-860400" transform="translate(426, 457.25)"><g id="cp_3_lines_2_qn6sjwx2lxxo-fill" stroke="none" fill="#3cc583"><g><path d="M 18 10.7871C 15.2656 10.7871 12.5913 10.5167 10 10L 10 16L 26 16L 26 10.000001C 23.4087 10.5167 20.7344 10.7871 18 10.7871ZM 18 58.7129C 15.2656 58.7129 12.5913 58.9833 10 59.5L 10 53.5L 26 53.5L 26 59.5C 23.4087 58.9833 20.7344 58.7129 18 58.7129ZM 26 53.5L 26 16L 10 16L 10 53.5L 26 53.5Z"></path></g></g></g><g id="g-root-cp_4_g-4_m7dafgx2lypy-fill" data-item-order="-860372" transform="translate(392, 506)"><g id="cp_4_g-4_m7dafgx2lypy-fill" stroke="none" fill="#92bd39"><g><path d="M 52 94C 75.196 94 94 75.196 94 52C 94 28.804 75.196 10 52 10C 28.804 10 10 28.804 10 52C 10 75.196 28.804 94 52 94ZM 52 78.25C 66.4975 78.25 78.25 66.4975 78.25 52C 78.25 37.5025 66.4975 25.75 52 25.75C 37.5025 25.75 25.75 37.5025 25.75 52C 25.75 66.4975 37.5025 78.25 52 78.25Z"></path></g></g></g><g id="g-root-sy_4_Subtract_8wj958x2lx54-fill" data-item-order="-860365" transform="translate(476, 548)"></g><g id="g-root-sy_4_Subtract-start_8wj958x2lx55-fill" data-item-order="-860363" transform="translate(515.375, 545.375)"></g><g id="g-root-sy_4_Subtract_1_4gpr0sx2lxxe-fill" data-item-order="-860359" transform="translate(353, 548)"></g><g id="g-root-sy_4_Subtract-start_1_1um6sr0x2lyiz-fill" data-item-order="-860357" transform="translate(347, 545)"></g><g id="g-root-cp_4_lines_3_1q6damkx2lzb8-fill" data-item-order="-860350" transform="translate(426, 589.25)"><g id="cp_4_lines_3_1q6damkx2lzb8-fill" stroke="none" fill="#92bd39"><g><path d="M 18 10.7871C 15.2656 10.7871 12.5913 10.5167 10 10L 10 16L 26 16L 26 10.000001C 23.4087 10.5167 20.7344 10.7871 18 10.7871ZM 18 58.7129C 15.2656 58.7129 12.5913 58.9833 10 59.5L 10 53.5L 26 53.5L 26 59.5C 23.4087 58.9833 20.7344 58.7129 18 58.7129ZM 26 53.5L 26 16L 10 16L 10 53.5L 26 53.5Z"></path></g></g></g><g id="g-root-cp_5_g-5_1hbcrgsx2lwy6-fill" data-item-order="-860328" transform="translate(392, 638)"><g id="cp_5_g-5_1hbcrgsx2lwy6-fill" stroke="none" fill="#e0cb15"><g><path d="M 52 94C 75.196 94 94 75.196 94 52C 94 28.804 75.196 10 52 10C 28.804 10 10 28.804 10 52C 10 75.196 28.804 94 52 94ZM 52 78.25C 66.4975 78.25 78.25 66.4975 78.25 52C 78.25 37.5025 66.4975 25.75 52 25.75C 37.5025 25.75 25.75 37.5025 25.75 52C 25.75 66.4975 37.5025 78.25 52 78.25Z"></path></g></g></g><g id="g-root-sy_5_Subtract_1cvj9ccx2lxqg-fill" data-item-order="-860321" transform="translate(476, 680)"></g><g id="g-root-sy_5_Subtract-start_zk2qz0x2lzbd-fill" data-item-order="-860319" transform="translate(515.375, 677.375)"></g><g id="g-root-sy_5_Subtract_1_zk2qz0x2lzbe-fill" data-item-order="-860315" transform="translate(353, 680)"></g><g id="g-root-sy_5_Subtract-start_1_v4vpxox2lwxv-fill" data-item-order="-860313" transform="translate(347, 677)"></g><g id="g-root-cp_5_lines_4_m98posx2lxqk-fill" data-item-order="-860302" transform="translate(426, 721.25)"><g id="cp_5_lines_4_m98posx2lxqk-fill" stroke="none" fill="#e0cb15"><g><path d="M 18 10.7871C 15.2656 10.7871 12.5913 10.5167 10 10L 10 16L 26 16L 26 10.000001C 23.4087 10.5167 20.7344 10.7871 18 10.7871ZM 18 58.7129C 15.2656 58.7129 12.5913 58.9833 10 59.5L 10 53.5L 26 53.5L 26 59.5C 23.4087 58.9833 20.7344 58.7129 18 58.7129ZM 26 53.5L 26 16L 10 16L 10 53.5L 26 53.5Z"></path></g></g></g><g id="g-root-cp_6_g-6_8xs7bgx2lzbi-fill" data-item-order="-860274" transform="translate(392, 770)"><g id="cp_6_g-6_8xs7bgx2lzbi-fill" stroke="none" fill="#de8431"><g><path d="M 52 94C 75.196 94 94 75.196 94 52C 94 28.804 75.196 10 52 10C 28.804 10 10 28.804 10 52C 10 75.196 28.804 94 52 94ZM 52 78.25C 66.4975 78.25 78.25 66.4975 78.25 52C 78.25 37.5025 66.4975 25.75 52 25.75C 37.5025 25.75 25.75 37.5025 25.75 52C 25.75 66.4975 37.5025 78.25 52 78.25Z"></path></g></g></g><g id="g-root-sy_6_Subtract_4il6a4x2lwy0-fill" data-item-order="-860267" transform="translate(476, 812)"></g><g id="g-root-sy_6_Subtract-start_2ro5ox2lxq9-fill" data-item-order="-860265" transform="translate(515.375, 809.375)"></g><g id="g-root-sy_6_Subtract_1_1q88pvwx2lybu-fill" data-item-order="-860261" transform="translate(353, 812)"></g><g id="g-root-sy_6_Subtract-start_1_1lsf7rgx2lz43-fill" data-item-order="-860259" transform="translate(347, 809)"></g><g id="g-root-cp_6_lines_5_18hl6h8x2lxj8-fill" data-item-order="-860252" transform="translate(426, 853.25)"><g id="cp_6_lines_5_18hl6h8x2lxj8-fill" stroke="none" fill="#de8431"><g><path d="M 18 10.7871C 15.2656 10.7871 12.5913 10.5167 10 10L 10 16L 26 16L 26 10.000001C 23.4087 10.5167 20.7344 10.7871 18 10.7871ZM 18 58.7129C 15.2656 58.7129 12.5913 58.9833 10 59.5L 10 53.5L 26 53.5L 26 59.5C 23.4087 58.9833 20.7344 58.7129 18 58.7129ZM 26 53.5L 26 16L 10 16L 10 53.5L 26 53.5Z"></path></g></g></g><g id="g-root-cp_7_g-7_zly68cx2lyby-fill" data-item-order="-860228" transform="translate(392, 902)"><g id="cp_7_g-7_zly68cx2lyby-fill" stroke="none" fill="#e55753"><g><path d="M 52 94C 75.196 94 94 75.196 94 52C 94 28.804 75.196 10 52 10C 28.804 10 10 28.804 10 52C 10 75.196 28.804 94 52 94ZM 52 78.25C 66.4975 78.25 78.25 66.4975 78.25 52C 78.25 37.5025 66.4975 25.75 52 25.75C 37.5025 25.75 25.75 37.5025 25.75 52C 25.75 66.4975 37.5025 78.25 52 78.25Z"></path></g></g></g><g id="g-root-sy_7_Subtract_v64o3wx2lz48-fill" data-item-order="-860221" transform="translate(476, 944)"></g><g id="g-root-sy_7_Subtract-start_qqb5zgx2lzwh-fill" data-item-order="-860219" transform="translate(515.375, 941.375)"></g><g id="g-root-sy_7_Subtract_1_hvamtox2lxje-fill" data-item-order="-860215" transform="translate(353, 944)"></g><g id="g-root-sy_7_Subtract-start_1_dfh4p8x2lybn-fill" data-item-order="-860213" transform="translate(347, 941)"></g><g id="g-root-ic_smar_40mbwx2rjt6-fill" data-item-order="-2304" transform="translate(290, 518)"><g id="ic_smar_40mbwx2rjt6-fill" stroke="none" fill="#92bd39"><g><path d="M 32.68 43.360001C 31.953074 43.991344 31.022816 44.339302 30.059999 44.34L 30.059999 51.040001L 13.2 51.040001L 13.2 26.16C 13.2 25.276344 13.916345 24.560001 14.8 24.560001L 17.459999 24.560001L 17.459999 21.380001L 14.8 21.380001C 12.156824 21.379978 10.011013 23.516848 10 26.16L 10 53.200001C 10.010959 55.846416 12.153585 57.989044 14.8 58.000004L 28.42 58C 31.066416 57.989044 33.209045 55.846416 33.220001 53.200001L 33.220001 42.900002ZM 50.200001 19.18L 48.759998 19.18L 48.759998 22L 50.200001 22C 50.995136 21.999781 51.639603 21.355135 51.639603 20.560001C 51.639603 19.764866 50.995136 19.12022 50.200001 19.119999ZM 28.26 19.18C 27.46471 19.18 26.82 19.824711 26.82 20.619999L 26.82 24C 26.81978 24.795444 27.464554 25.440399 28.26 25.440399C 29.055445 25.440399 29.70022 24.795444 29.700001 24L 29.700001 20.619999C 29.700001 19.824711 29.05529 19.18 28.26 19.18ZM 53 10L 25.459999 10C 22.698576 10 20.459999 12.238576 20.459999 15L 20.459999 29.34C 20.459999 32.101425 22.698576 34.34 25.459999 34.34L 29.059999 34.34L 29.059999 40.34C 29.060083 40.732758 29.285666 41.090576 29.639999 41.260002C 29.778542 41.288559 29.921455 41.288559 30.059999 41.259998C 30.301172 41.258945 30.534481 41.174103 30.719999 41.019997L 38.440002 34.260002L 53 34C 55.761425 34 58 31.761425 58 29L 58 15C 58 12.238576 55.761425 10 53 10ZM 32.700001 24C 32.700085 26.452204 30.712204 28.440153 28.26 28.440153C 25.807796 28.440153 23.819916 26.452204 23.82 24L 23.82 20.619999C 23.819916 18.167797 25.807796 16.179848 28.26 16.179848C 30.712204 16.179848 32.700085 18.167797 32.700001 20.619999ZM 41.700001 19.24L 40.260002 19.24L 40.260002 26.879999C 40.260002 27.708427 39.588428 28.380001 38.760002 28.380001C 37.931572 28.380001 37.260002 27.708427 37.260002 26.880001L 37.260002 19.18L 35.82 19.18C 34.991573 19.18 34.32 18.508427 34.32 17.68C 34.32 16.851574 34.991573 16.18 35.82 16.18L 41.700001 16.18C 42.528427 16.18 43.200001 16.851574 43.200001 17.68C 43.200001 18.508427 42.528427 19.18 41.700001 19.18ZM 50.200001 25.060001L 48.759998 25.060001L 48.759998 26.879999C 48.760002 27.708427 48.088428 28.380001 47.260002 28.380001C 46.431576 28.380001 45.760002 27.708427 45.760002 26.880001L 45.759998 17.68C 45.770771 16.856075 46.436073 16.190771 47.259998 16.18L 50.200001 16.18C 52.652084 16.180084 54.639847 18.167915 54.639847 20.619999C 54.639847 23.072084 52.652084 25.059916 50.200001 25.060001Z"></path></g></g></g><g id="g-root-ic_male_1464zykx2syyq-fill" data-item-order="-2304" transform="translate(290, 782)"><g id="ic_male_1464zykx2syyq-fill" stroke="none" fill="#de8431"><g><path d="M 29.440001 16.540001C 25.640282 16.540001 22.559999 19.620281 22.559999 23.42C 22.559999 27.219719 25.640282 30.299999 29.439999 30.299999C 33.239719 30.299999 36.32 27.219719 36.32 23.42C 36.309013 19.62484 33.235161 16.550983 29.440001 16.540001ZM 29.440001 27.299999C 28.390329 27.332479 27.372324 26.938078 26.618519 26.206888C 25.864712 25.475697 25.439497 24.470173 25.439999 23.42C 25.487038 22.810253 25.679031 22.22056 26 21.699999C 27.526003 22.817734 29.368437 23.420202 31.26 23.42C 31.933634 23.416466 32.604656 23.335943 33.260002 23.18C 33.331669 24.24107 32.962387 25.284702 32.239311 26.064558C 31.516243 26.844416 30.503454 27.291397 29.439999 27.299999ZM 29.440001 31.120001C 25.029688 31.119999 21.31707 34.420105 20.799999 38.799999C 20.765953 39.051872 20.839989 39.306393 21.003819 39.500702C 21.167648 39.695015 21.406 39.810997 21.66 39.82L 37.200001 39.82C 37.445644 39.800858 37.672012 39.679615 37.824074 39.485741C 37.976128 39.29187 38.03994 39.043129 38 38.799999C 37.495125 34.445869 33.823196 31.151426 29.440001 31.120001ZM 10 10M 57.759998 43.220001L 49.16 33.099998C 48.977627 32.879322 48.70628 32.751556 48.419998 32.751556C 48.133717 32.751556 47.86237 32.879322 47.679996 33.099998L 39.080002 43.220001C 38.82444 43.505463 38.7631 43.91555 38.923935 44.263302C 39.08477 44.611057 39.436981 44.829872 39.82 44.82L 43.560001 44.82L 43.560001 57.02C 43.554619 57.278053 43.653385 57.527401 43.834007 57.711784C 44.014626 57.896172 44.261887 58.000053 44.519997 57.999996L 52.32 58C 52.57811 58.000053 52.825371 57.896172 53.005989 57.711784C 53.186611 57.527401 53.285374 57.278053 53.279999 57.019997L 53.279999 44.82L 57.02 44.82C 57.403015 44.829872 57.755226 44.611057 57.916061 44.263302C 58.076897 43.91555 58.015553 43.505463 57.759998 43.219997ZM 40.559998 47.82L 39.82 47.82C 38.269558 47.819698 36.85894 46.92345 36.200001 45.52C 36.108795 45.306366 36.035217 45.085632 35.980003 44.860001L 17.82 44.860001C 16.808716 44.865322 15.837026 44.467319 15.120056 43.754101C 14.403086 43.040886 13.999986 42.071297 14 41.060001L 14 17.82C 13.994645 16.805241 14.395388 15.830494 15.112942 15.112942C 15.830494 14.395388 16.805241 13.994645 17.82 14L 41.059998 14C 42.071297 13.999986 43.040886 14.403086 43.754101 15.120056C 44.467319 15.837026 44.865322 16.808716 44.860001 17.82L 44.860001 31.82L 45.400002 31.200001C 46.15546 30.31674 47.257744 29.805748 48.419998 29.799999L 48.860001 29.799999L 48.860001 17.799999C 48.849007 13.49674 45.363258 10.010992 41.059998 10L 17.82 10C 13.501133 10 10 13.501133 10 17.82L 10 41.059998C 10.011025 45.371056 13.508932 48.860016 17.82 48.860001L 40.559998 48.860001Z"></path></g></g></g><g id="g-root-ic_1_1d1s07gx2ndhm-fill" data-item-order="-2304" transform="translate(530, 386)"><g id="ic_1_1d1s07gx2ndhm-fill" stroke="none" fill="#3cc583"><g><path d="M 15 14C 14.447716 14 14 14.447716 14 15L 14 32.5C 14 33.052284 14.447716 33.5 15 33.5L 33.375999 33.5C 34.480568 33.5 35.375999 34.395432 35.375999 35.5C 35.375999 36.604568 34.480568 37.5 33.375999 37.5L 15 37.5C 12.238576 37.5 10 35.261425 10 32.5L 10 15C 10 12.238576 12.238576 10 15 10L 49.5 10C 52.261425 10 54.5 12.238576 54.5 15L 54.5 32.5C 54.5 35.261425 52.261425 37.5 49.5 37.5C 48.395432 37.5 47.5 36.604568 47.5 35.5C 47.5 34.395432 48.395432 33.5 49.5 33.5C 50.052284 33.5 50.5 33.052284 50.5 32.5L 50.5 15C 50.5 14.447716 50.052284 14 49.5 14L 15 14ZM 35.059998 16.794001C 35.908623 17.500496 36.024117 18.761059 35.318001 19.610001L 26.284 30.450001C 25.924297 30.881487 25.399714 31.141808 24.838539 31.167297C 24.277363 31.192789 23.73134 30.9811 23.334 30.584L 19.450001 26.700001C 18.669071 25.918518 18.669518 24.651932 19.451 23.871002C 20.232483 23.090071 21.499069 23.090519 22.280001 23.872002L 24.616001 26.208L 32.246002 17.048C 32.953835 16.199318 34.215816 16.085567 35.063999 16.794001ZM 37.5 32.313999C 37.5 30.125999 39.313999 28.313999 41.5 28.313999C 43.686001 28.313999 45.5 30.125999 45.5 32.313999L 45.5 44.813999L 47.5 44.813999C 53.02285 44.813999 57.5 49.291153 57.5 54.813999L 57.5 56.313999C 57.5 56.866283 57.052284 57.313999 56.5 57.313999L 35.5 57.313999C 35.213783 57.313568 34.941475 57.190521 34.751999 56.976002L 29.228001 50.759998C 27.708172 49.059208 27.848513 46.449963 29.542 44.922001C 30.798285 43.814423 32.598137 43.572861 34.101997 44.310001C 34.587997 44.549999 35.021999 44.886002 35.375999 45.293999L 37.5 47.681999L 37.5 32.312Z"></path></g></g></g><g id="g-root-ic_1_1lqjsi4x2sy6j-fill" data-item-order="-2304" transform="translate(530, 650)"><g id="ic_1_1lqjsi4x2sy6j-fill" stroke="none" fill="#e0cb15"><g><path d="M 34 37.120003L 34 47C 34 48.104568 33.104568 49 32 49L 18 49C 16.895432 49 16 48.104568 16 47L 16 25C 16 23.895432 16.895432 23 18 23L 26.52 23C 26.785095 23 26.999998 22.785095 26.999998 22.52C 27.045246 21.207432 27.246666 19.904926 27.6 18.639999C 27.643229 18.492237 27.615976 18.332802 27.526123 18.207787C 27.43627 18.082771 27.293833 18.006123 27.139999 18L 17 18C 14.238577 18 12 20.238575 12 23L 12 53C 12 55.761425 14.238577 58 17 58L 33 58C 35.761425 58 38 55.761425 38 53L 38 38.540001C 37.992134 38.337391 37.867226 38.157829 37.68 38.079998C 36.659897 37.726288 35.680908 37.263611 34.760002 36.700001C 34.60672 36.606663 34.415176 36.602631 34.25811 36.68943C 34.101036 36.776234 34.002533 36.940559 34 37.120003ZM 43 10C 35.820297 10 30.000002 15.820299 30.000002 23C 30.000002 30.179701 35.820297 36 43 36C 50.179703 36 56 30.179703 56 23C 55.988987 15.824865 50.175137 10.011013 43 10ZM 36.220001 25.48C 35.669281 24.888981 35.685532 23.967979 36.256756 23.396755C 36.82798 22.825531 37.748981 22.809282 38.34 23.360001L 41.34 26.360001L 47.139999 18.6C 47.642487 17.93697 48.587387 17.806957 49.250271 18.309643C 49.913151 18.812328 50.042881 19.757267 49.539997 20.42L 43.740002 28.16C 43.206573 28.838253 42.411579 29.259766 41.550846 29.320702C 40.690117 29.381639 39.843662 29.076336 39.220001 28.48Z"></path></g></g></g><g id="g-root-ic_chec_hrjsb0x2ndos-fill" data-item-order="-2304" transform="translate(290, 254)"><g id="ic_chec_hrjsb0x2ndos-fill" stroke="none" fill="#1eabda"><g><path d="M 44 27C 45.142418 27.007833 46.281273 27.128418 47.400002 27.360001C 47.53183 27.427643 47.688171 27.427643 47.82 27.360001C 47.938404 27.261505 48.004807 27.113939 48 26.959999L 48 13.16C 48.005653 13.042612 47.931862 12.936025 47.819996 12.9C 47.720989 12.842837 47.599007 12.842837 47.5 12.9L 32 23.720001C 30.322044 25.3251 27.677958 25.3251 26 23.720001L 10.5 12.96C 10.400991 12.902838 10.279008 12.902838 10.18 12.96C 10.0898 12.99158 10.021936 13.066983 10 13.16L 10 32.16C 9.999966 33.908485 11.411551 35.329002 13.16 35.34L 29.16 35.34C 29.333023 35.341545 29.49349 35.249851 29.579998 35.099998C 32.65799 30.083317 38.114357 27.018368 44 27ZM 27.6 22C 28.377687 22.762287 29.622313 22.762287 30.4 22L 45.740002 11.38C 45.97459 11.177715 46.075172 10.860501 46 10.56C 45.911144 10.234052 45.61779 10.005887 45.279999 10L 44.84 10L 13.16 10L 12.7 10C 12.369698 10.014535 12.086686 10.240945 12 10.56C 11.904921 10.845652 11.97402 11.160435 12.18 11.38ZM 44 30C 36.268013 30.000002 30.000002 36.268013 30.000002 44C 30.000002 51.731987 36.268013 58 44.000004 58C 51.731987 58 58 51.731987 58.000004 44C 58.000004 36.268013 51.731987 30 44 30ZM 44 54C 38.477154 54 34 49.522846 34 44C 34 38.477154 38.477154 34 44 34C 49.522846 34 54 38.477154 54 44C 54 49.522846 49.522846 54 44 54ZM 10 10M 46.700001 40.099998L 42.52 45.66L 40.720001 43.860001C 39.939926 43.084553 38.680077 43.084553 37.900002 43.860001C 37.521374 44.235535 37.308403 44.746723 37.308403 45.279999C 37.308403 45.813274 37.521374 46.324467 37.900002 46.700001L 40.34 49.119999C 40.992683 49.788845 41.906532 50.136734 42.838764 50.071247C 43.771 50.005756 44.627235 49.533524 45.18 48.779999L 50 42.5C 50.662743 41.610821 50.479179 40.352741 49.59 39.690002C 48.700821 39.02726 47.442741 39.210823 46.779999 40.099998Z"></path></g></g></g><g id="g-root-ic_fema_qrk45ox2udj7-fill" data-item-order="-2304" transform="translate(530, 914)"><g id="ic_fema_qrk45ox2udj7-fill" stroke="none" fill="#e55753"><g><path d="M 37.18 28C 36.627563 27.077719 36.356468 26.014193 36.400002 24.940001L 36.400002 23.299999C 36.400002 19.434008 33.265995 16.300001 29.400002 16.300001C 25.534008 16.300001 22.400002 19.434008 22.400002 23.299999L 22.4 24.880001C 22.479593 25.966286 22.23604 27.051838 21.700001 28C 21.297997 28.678659 21.49029 29.552719 22.139999 30C 22.385674 30.154751 22.669659 30.237869 22.959999 30.24C 23.468058 30.241346 23.942265 29.985424 24.220001 29.560001C 24.483635 29.160395 24.698496 28.730673 24.860001 28.280001C 26.049549 29.533606 27.701838 30.243517 29.43 30.243517C 31.158165 30.243517 32.810455 29.533606 34 28.280001C 34.175537 28.728165 34.396698 29.157087 34.66 29.559999C 35.141434 30.120281 35.959122 30.246639 36.587219 29.857815C 37.215317 29.46899 37.466827 28.680754 37.18 28ZM 29.440001 27.26C 27.667124 27.26206 26.205439 25.870819 26.120001 24.1C 26.120001 24.1 26.120001 23.939999 26.120001 23.880001C 27.405087 23.470373 28.553339 22.7164 29.440001 21.700001C 30.328686 22.723427 31.485437 23.478432 32.780003 23.880001C 32.779999 23.880001 32.779999 24.02 32.779999 24.1C 32.70443 25.883251 31.224699 27.283236 29.440001 27.26ZM 29.440001 31.18C 24.923168 31.17045 21.118816 34.553055 20.6 39.040001C 20.565638 39.295246 20.642273 39.552986 20.810513 39.74799C 20.978752 39.942993 21.222473 40.05658 21.48 40.060001L 37.48 40.059998C 37.737526 40.05658 37.981247 39.942993 38.14949 39.74799C 38.317726 39.552986 38.394363 39.295246 38.360001 39.040001C 37.837921 34.522469 33.987316 31.129448 29.440001 31.18ZM 10 10M 57.759998 43.220001L 49.16 33.099998C 48.977627 32.879322 48.70628 32.751556 48.419998 32.751556C 48.133717 32.751556 47.86237 32.879322 47.679996 33.099998L 39.080002 43.220001C 38.82444 43.505463 38.7631 43.91555 38.923935 44.263302C 39.08477 44.611057 39.436981 44.829872 39.82 44.82L 43.560001 44.82L 43.560001 57.02C 43.554619 57.278053 43.653385 57.527401 43.834007 57.711784C 44.014626 57.896172 44.261887 58.000053 44.519997 57.999996L 52.32 58C 52.57811 58.000053 52.825371 57.896172 53.005989 57.711784C 53.186611 57.527401 53.285374 57.278053 53.279999 57.019997L 53.279999 44.82L 57.02 44.82C 57.403015 44.829872 57.755226 44.611057 57.916061 44.263302C 58.076897 43.91555 58.015553 43.505463 57.759998 43.219997ZM 40.559998 47.82L 39.82 47.82C 38.269558 47.819698 36.85894 46.92345 36.200001 45.52C 36.099895 45.309845 36.026009 45.088184 35.98 44.860001L 17.82 44.860001C 16.808716 44.865322 15.837026 44.467319 15.120056 43.754101C 14.403086 43.040886 13.999986 42.071297 14 41.060001L 14 17.82C 13.994645 16.805241 14.395388 15.830494 15.112942 15.112942C 15.830494 14.395388 16.805241 13.994645 17.82 14L 41.059998 14C 42.071297 13.999986 43.040886 14.403086 43.754101 15.120056C 44.467319 15.837026 44.865322 16.808716 44.860001 17.82L 44.860001 31.82L 45.400002 31.200001C 46.15546 30.31674 47.257744 29.805748 48.419998 29.799999L 48.860001 29.799999L 48.860001 17.799999C 48.849007 13.49674 45.363258 10.010992 41.059998 10L 17.82 10C 13.501133 10 10 13.501133 10 17.82L 10 41.059998C 10.011025 45.371056 13.508932 48.860016 17.82 48.860001L 40.559998 48.860001Z"></path></g></g></g><g id="g-root-ic_text_v803d8x2ly4o-fill" data-item-order="-2304" transform="translate(530, 122)"><g id="ic_text_v803d8x2ly4o-fill" stroke="none" fill="#4e88e7"><g><path d="M 28.5 45C 28.776142 45 29 44.776142 29 44.5L 29 35C 29 31.686293 31.686293 29 35 29L 38.360001 29C 38.928078 28.763931 39.476471 28.483044 40 28.160002C 40.197632 28.036489 40.329689 27.831074 40.360001 27.6C 40.395988 27.373266 40.321697 27.142963 40.16 26.98C 39.18 25.9 38.5 24.6 38.16 20.34C 37.68 12.7 32.48 10 28 10C 23.52 10 18.32 12.7 17.799999 20.34C 17.5 24.6 16.82 26 15.84 26.98C 15.678303 27.142963 15.604012 27.373266 15.639999 27.6C 15.670313 27.831074 15.802365 28.036489 16 28.16C 18.26897 29.537739 20.91361 30.167414 23.559999 29.959999C 23.693157 29.960684 23.821365 30.010544 23.92 30.1C 24.020351 30.193047 24.07818 30.32316 24.08 30.459999L 24.08 31.379999C 24.078512 32.032001 23.671696 32.614307 23.060001 32.84C 17.26 34.98 12.62 36.5 11.52 38.68C 10.680565 40.397617 10.165272 42.255386 10 44.16C 9.986938 44.372231 10.058904 44.580929 10.2 44.740002C 10.350515 44.901119 10.559574 44.994835 10.78 45ZM 58 36C 58 33.790863 56.209141 32 54 32L 36 32C 33.790863 32 32 33.790863 32 36L 32 54C 32 56.209141 33.790863 58 36 58L 54 58C 56.209141 58 58 56.209141 58 54ZM 36 36.5C 36 36.223858 36.223858 36 36.5 36L 53.5 36C 53.776142 36 54 36.223858 54 36.5L 54 53.5C 54.005718 53.634277 53.95488 53.764809 53.859844 53.859844C 53.764809 53.95488 53.634277 54.005718 53.499996 53.999996L 36.5 54C 36.223858 54 36 53.776142 36 53.5ZM 50 40L 40.5 40C 39.671574 40 39 40.671574 39 41.5C 39 42.328426 39.671574 43 40.5 43L 50 43C 50.82843 43 51.5 42.328426 51.5 41.5C 51.5 40.671574 50.82843 40 50 40ZM 40.5 49L 45 49C 45.828426 49 46.5 48.328426 46.5 47.5C 46.5 46.671574 45.828426 46 45 46L 40.5 46C 39.671574 46 39 46.671574 39 47.5C 39 48.328426 39.671574 49 40.5 49Z"></path></g></g></g><g id="g-root-tx_phonever_zs6x3gx2rklc-fill" data-item-order="0" transform="translate(230, 668)"><g id="tx_phonever_zs6x3gx2rklc-fill" stroke="none" fill="#46432d"><g><text style="font: 15px Roboto, sans-serif; white-space: pre;" font-size="15px" font-family="Roboto, sans-serif"><tspan x="19.11" y="30.6" dominant-baseline="ideographic">Phone Verified</tspan></text></g></g></g><g id="g-root-tx_5_qtfjf0x2sydj-fill" data-item-order="0" transform="translate(422, 662)"><g id="tx_5_qtfjf0x2sydj-fill" stroke="none" fill="#e0cb15"><g><text style="font: bold 30px Roboto, sans-serif; white-space: pre;" font-weight="bold" font-size="30px" font-family="Roboto, sans-serif"><tspan x="13.39" y="46" dominant-baseline="ideographic">5</tspan></text></g></g></g><g id="g-root-tx_userente_mgqeq4x2rm69-fill" data-item-order="0" transform="translate(590, 650)"><g id="tx_userente_mgqeq4x2rm69-fill" stroke="none" fill="#e0cb15"><g><text style="font: bold 20px Roboto, sans-serif; white-space: pre;" font-weight="bold" font-size="20px" font-family="Roboto, sans-serif"><tspan x="12" y="34" dominant-baseline="ideographic">User enters correct OTP </tspan><tspan x="12" y="58" dominant-baseline="ideographic">from phone</tspan></text></g></g></g><g id="g-root-tx__deunm4x2rle1-fill" data-item-order="0" transform="translate(266, 578)"><g id="tx__deunm4x2rle1-fill" stroke="none" fill="#424736"><g><text style="font: 15px Roboto, sans-serif; white-space: pre;" font-size="15px" font-family="Roboto, sans-serif"></text></g></g></g><g id="g-root-tx_phoneotp_940y6kx2rll2-fill" data-item-order="0" transform="translate(530, 536)"><g id="tx_phoneotp_940y6kx2rll2-fill" stroke="none" fill="#424736"><g><text style="font: 15px Roboto, sans-serif; white-space: pre;" font-size="15px" font-family="Roboto, sans-serif"><tspan x="12" y="30.6" dominant-baseline="ideographic">Phone OTP Sent</tspan></text></g></g></g><g id="g-root-tx_4_1hiugi4x2rldz-fill" data-item-order="0" transform="translate(422, 530)"><g id="tx_4_1hiugi4x2rldz-fill" stroke="none" fill="#92bd39"><g><text style="font: bold 30px Roboto, sans-serif; white-space: pre;" font-weight="bold" font-size="30px" font-family="Roboto, sans-serif"><tspan x="13.39" y="46" dominant-baseline="ideographic">4</tspan></text></g></g></g><g id="g-root-tx_otpsentt_qqb5zgx2rjt4-fill" data-item-order="0" transform="translate(50, 518)"><g id="tx_otpsentt_qqb5zgx2rjt4-fill" stroke="none" fill="#92bd39"><g><text style="font: bold 20px Roboto, sans-serif; white-space: pre;" font-weight="bold" font-size="20px" font-family="Roboto, sans-serif"><tspan x="12.7" y="34" dominant-baseline="ideographic">OTP sent to user's phone </tspan><tspan x="103.95" y="58" dominant-baseline="ideographic">for verification</tspan></text></g></g></g><g id="g-root-tx__9rt8x2szyi-fill" data-item-order="0" transform="translate(590, 710)"><g id="tx__9rt8x2szyi-fill" stroke="none" fill="#46432d"><g><text style="font: 15px Roboto, sans-serif; white-space: pre;" font-size="15px" font-family="Roboto, sans-serif"></text></g></g></g><g id="g-root-tx_useracco_74zrgx2sydk-fill" data-item-order="0" transform="translate(86, 782)"><g id="tx_useracco_74zrgx2sydk-fill" stroke="none" fill="#de8431"><g><text style="font: bold 20px Roboto, sans-serif; white-space: pre;" font-weight="bold" font-size="20px" font-family="Roboto, sans-serif"><tspan x="60.89" y="34" dominant-baseline="ideographic">User account is </tspan><tspan x="14.46" y="58" dominant-baseline="ideographic">successfully created</tspan></text></g></g></g><g id="g-root-tx__1qd8iksx2nbwp-fill" data-item-order="0" transform="translate(590, 446)"><g id="tx__1qd8iksx2nbwp-fill" stroke="none" fill="#374840"><g><text style="font: 15px Roboto, sans-serif; white-space: pre;" font-size="15px" font-family="Roboto, sans-serif"></text></g></g></g><g id="g-root-tx_emailver_v991jgx2ndon-fill" data-item-order="0" transform="translate(242, 404)"><g id="tx_emailver_v991jgx2ndon-fill" stroke="none" fill="#374840"><g><text style="font: 15px Roboto, sans-serif; white-space: pre;" font-size="15px" font-family="Roboto, sans-serif"><tspan x="12.5" y="30.6" dominant-baseline="ideographic">Email Verified</tspan></text></g></g></g><g id="g-root-tx_6_hu1ongx2ufbj-fill" data-item-order="0" transform="translate(422, 794)"><g id="tx_6_hu1ongx2ufbj-fill" stroke="none" fill="#de8431"><g><text style="font: bold 30px Roboto, sans-serif; white-space: pre;" font-weight="bold" font-size="30px" font-family="Roboto, sans-serif"><tspan x="13.39" y="46" dominant-baseline="ideographic">6</tspan></text></g></g></g><g id="g-root-tx_userente_dili4sx2ncw0-fill" data-item-order="0" transform="translate(590, 386)"><g id="tx_userente_dili4sx2ncw0-fill" stroke="none" fill="#3cc583"><g><text style="font: bold 20px Roboto, sans-serif; white-space: pre;" font-weight="bold" font-size="20px" font-family="Roboto, sans-serif"><tspan x="12" y="34" dominant-baseline="ideographic">User enters correct OTP </tspan><tspan x="12" y="58" dominant-baseline="ideographic">from email</tspan></text></g></g></g><g id="g-root-tx_3_1hclpn0x2rjt3-fill" data-item-order="0" transform="translate(422, 398)"><g id="tx_3_1hclpn0x2rjt3-fill" stroke="none" fill="#3cc583"><g><text style="font: bold 30px Roboto, sans-serif; white-space: pre;" font-weight="bold" font-size="30px" font-family="Roboto, sans-serif"><tspan x="13.39" y="46" dominant-baseline="ideographic">3</tspan></text></g></g></g><g id="g-root-tx__qn6sjwx2ncw3-fill" data-item-order="0" transform="translate(266, 314)"><g id="tx__qn6sjwx2ncw3-fill" stroke="none" fill="#32444a"><g><text style="font: 15px Roboto, sans-serif; white-space: pre;" font-size="15px" font-family="Roboto, sans-serif"></text></g></g></g><g id="g-root-tx_emailotp_dgq2vgx2ndvp-fill" data-item-order="0" transform="translate(530, 272)"><g id="tx_emailotp_dgq2vgx2ndvp-fill" stroke="none" fill="#32444a"><g><text style="font: 15px Roboto, sans-serif; white-space: pre;" font-size="15px" font-family="Roboto, sans-serif"><tspan x="12" y="30.6" dominant-baseline="ideographic">Email OTP Sent</tspan></text></g></g></g><g id="g-root-tx_accountc_141579ox2ucxy-fill" data-item-order="0" transform="translate(530, 800)"><g id="tx_accountc_141579ox2ucxy-fill" stroke="none" fill="#4c4034"><g><text style="font: 15px Roboto, sans-serif; white-space: pre;" font-size="15px" font-family="Roboto, sans-serif"><tspan x="12" y="30.6" dominant-baseline="ideographic">Account Created</tspan></text></g></g></g><g id="g-root-tx__1lwsjd8x2szrd-fill" data-item-order="0" transform="translate(266, 842)"><g id="tx__1lwsjd8x2szrd-fill" stroke="none" fill="#4c4034"><g><text style="font: 15px Roboto, sans-serif; white-space: pre;" font-size="15px" font-family="Roboto, sans-serif"></text></g></g></g><g id="g-root-tx_2_1lvjl70x2ndom-fill" data-item-order="0" transform="translate(422, 266)"><g id="tx_2_1lvjl70x2ndom-fill" stroke="none" fill="#1eabda"><g><text style="font: bold 30px Roboto, sans-serif; white-space: pre;" font-weight="bold" font-size="30px" font-family="Roboto, sans-serif"><tspan x="13.39" y="46" dominant-baseline="ideographic">2</tspan></text></g></g></g><g id="g-root-tx_otpsentt_1480f7wx2lzwi-fill" data-item-order="0" transform="translate(50, 254)"><g id="tx_otpsentt_1480f7wx2lzwi-fill" stroke="none" fill="#1eabda"><g><text style="font: bold 20px Roboto, sans-serif; white-space: pre;" font-weight="bold" font-size="20px" font-family="Roboto, sans-serif"><tspan x="19.04" y="34" dominant-baseline="ideographic">OTP sent to user's email </tspan><tspan x="103.95" y="58" dominant-baseline="ideographic">for verification</tspan></text></g></g></g><g id="g-root-tx_7_vbqxvwx2ufbj-fill" data-item-order="0" transform="translate(422, 926)"><g id="tx_7_vbqxvwx2ufbj-fill" stroke="none" fill="#e55753"><g><text style="font: bold 30px Roboto, sans-serif; white-space: pre;" font-weight="bold" font-size="30px" font-family="Roboto, sans-serif"><tspan x="13.39" y="46" dominant-baseline="ideographic">7</tspan></text></g></g></g><g id="g-root-tx__v7dma4x2ucqy-fill" data-item-order="0" transform="translate(590, 974)"><g id="tx__v7dma4x2ucqy-fill" stroke="none" fill="#543a3a"><g><text style="font: 15px Roboto, sans-serif; white-space: pre;" font-size="15px" font-family="Roboto, sans-serif"></text></g></g></g><g id="g-root-tx_userredi_18i7nkcx2uebt-fill" data-item-order="0" transform="translate(590, 914)"><g id="tx_userredi_18i7nkcx2uebt-fill" stroke="none" fill="#e55753"><g><text style="font: bold 20px Roboto, sans-serif; white-space: pre;" font-weight="bold" font-size="20px" font-family="Roboto, sans-serif"><tspan x="12" y="34" dominant-baseline="ideographic">User redirected to client </tspan><tspan x="12" y="58" dominant-baseline="ideographic">assessment page</tspan></text></g></g></g><g id="g-root-tx_redirect_1uoop3gx2uf40-fill" data-item-order="0" transform="translate(170, 932)"><g id="tx_redirect_1uoop3gx2uf40-fill" stroke="none" fill="#543a3a"><g><text style="font: 15px Roboto, sans-serif; white-space: pre;" font-size="15px" font-family="Roboto, sans-serif"><tspan x="17.28" y="30.6" dominant-baseline="ideographic">Redirect to Assessment</tspan></text></g></g></g><g id="g-root-tx_userente_1qa4558x2lxcd-fill" data-item-order="0" transform="translate(206, 140)"><g id="tx_userente_1qa4558x2lxcd-fill" stroke="none" fill="#3a4455"><g><text style="font: 15px Roboto, sans-serif; white-space: pre;" font-size="15px" font-family="Roboto, sans-serif"><tspan x="13.65" y="30.6" dominant-baseline="ideographic">User Enters Details</tspan></text></g></g></g><g id="g-root-tx_userprov_1cynmrwx2lyxa-fill" data-item-order="0" transform="translate(590, 122)"><g id="tx_userprov_1cynmrwx2lyxa-fill" stroke="none" fill="#4e88e7"><g><text style="font: bold 20px Roboto, sans-serif; white-space: pre;" font-weight="bold" font-size="20px" font-family="Roboto, sans-serif"><tspan x="12" y="34" dominant-baseline="ideographic">User provides email, </tspan><tspan x="12" y="58" dominant-baseline="ideographic">name, and phone</tspan></text></g></g></g><g id="g-root-tx_1_1lzafpox2lxjd-fill" data-item-order="0" transform="translate(422, 134)"><g id="tx_1_1lzafpox2lxjd-fill" stroke="none" fill="#4e88e7"><g><text style="font: bold 30px Roboto, sans-serif; white-space: pre;" font-weight="bold" font-size="30px" font-family="Roboto, sans-serif"><tspan x="13.39" y="46" dominant-baseline="ideographic">1</tspan></text></g></g></g><g id="g-root-tx_usersign_4ju4gcx2lz4c-fill" data-item-order="0" transform="translate(284, 38)"><g id="tx_usersign_4ju4gcx2lz4c-fill" stroke="none" fill="#484848"><g><text style="font: 20px Roboto, sans-serif; white-space: pre;" font-size="20px" font-family="Roboto, sans-serif"><tspan x="14.01" y="34" dominant-baseline="ideographic">User Sign-Up and Verification Flows</tspan></text></g></g></g><g id="g-root-tx__zntlhox2lxcf-fill" data-item-order="0" transform="translate(590, 182)"><g id="tx__zntlhox2lxcf-fill" stroke="none" fill="#3a4455"><g><text style="font: 15px Roboto, sans-serif; white-space: pre;" font-size="15px" font-family="Roboto, sans-serif"></text></g></g></g><g id="g-root-cp_1_g-1_1qd8iksx2kiry-stroke" data-item-order="-860530" transform="translate(392, 110)"><g id="cp_1_g-1_1qd8iksx2kiry-stroke" fill="none" stroke-linecap="round" stroke-linejoin="round" stroke-miterlimit="4" stroke="#ffffff" stroke-width="2"><g><path d="M 52 94C 75.196 94 94 75.196 94 52C 94 28.804 75.196 10 52 10C 28.804 10 10 28.804 10 52C 10 75.196 28.804 94 52 94ZM 52 78.25C 66.4975 78.25 78.25 66.4975 78.25 52C 78.25 37.5025 66.4975 25.75 52 25.75C 37.5025 25.75 25.75 37.5025 25.75 52C 25.75 66.4975 37.5025 78.25 52 78.25Z"></path></g></g></g><g id="g-root-sy_1_Subtract_1hhlibwx2kkcg-stroke" data-item-order="-860523" transform="translate(476, 152)"><g id="sy_1_Subtract_1hhlibwx2kkcg-stroke" fill="none" stroke-linecap="round" stroke-linejoin="round" stroke-miterlimit="4" stroke="#4e88e7" stroke-width="2"><g><path d="M 49.375 10L 10 10"></path></g></g></g><g id="g-root-sy_1_Subtract-start_18lyi30x2kl55-stroke" data-item-order="-860521" transform="translate(515.375, 149.375)"><g id="sy_1_Subtract-start_18lyi30x2kl55-stroke" fill="none" stroke-linecap="round" stroke-linejoin="round" stroke-miterlimit="4" stroke="#4e88e7" stroke-width="2"><g><path d="M 12.625 10C 14.0738 10 15.25 11.1762 15.25 12.625C 15.25 14.0738 14.0738 15.25 12.625 15.25C 11.1762 15.25 10 14.0738 10 12.625C 10 11.1762 11.1762 10 12.625 10Z"></path></g></g></g><g id="g-root-sy_1_Subtract_1_18lyi30x2kl56-stroke" data-item-order="-860517" transform="translate(353, 152)"><g id="sy_1_Subtract_1_18lyi30x2kl56-stroke" fill="none" stroke-linecap="round" stroke-linejoin="round" stroke-miterlimit="4" stroke="#4e88e7" stroke-width="2"><g><path d="M 10 10L 49 10"></path></g></g></g><g id="g-root-sy_1_Subtract-start_1_146rh1ox2kirn-stroke" data-item-order="-860515" transform="translate(347, 149)"><g id="sy_1_Subtract-start_1_146rh1ox2kirn-stroke" fill="none" stroke-linecap="round" stroke-linejoin="round" stroke-miterlimit="4" stroke="#4e88e7" stroke-width="2"><g><path d="M 13 10C 11.3443 10 10 11.3443 10 13C 10 14.6557 11.3443 16 13 16C 14.6557 16 16 14.6557 16 13C 16 11.3443 14.6557 10 13 10Z"></path></g></g></g><g id="g-root-cp_1_lines_vb4gssx2kjkc-stroke" data-item-order="-860502" transform="translate(426, 193.25)"><g id="cp_1_lines_vb4gssx2kjkc-stroke" fill="none" stroke-linecap="round" stroke-linejoin="round" stroke-miterlimit="4" stroke="#ffffff" stroke-width="2"><g><path d="M 10 16L 10 10C 12.5913 10.5167 15.2656 10.7871 18 10.7871C 20.7344 10.7871 23.4087 10.5167 26 10.000001L 26 16M 26 53.5L 26 59.5C 23.4087 58.9833 20.7344 58.7129 18 58.7129C 15.2656 58.7129 12.5913 58.9833 10 59.5L 10 53.5M 26 53.5L 26 16M 10 16L 10 53.5"></path></g></g></g><g id="g-root-cp_2_g-2_qvayocx2kkcm-stroke" data-item-order="-860472" transform="translate(392, 242)"><g id="cp_2_g-2_qvayocx2kkcm-stroke" fill="none" stroke-linecap="round" stroke-linejoin="round" stroke-miterlimit="4" stroke="#ffffff" stroke-width="2"><g><path d="M 52 94C 75.196 94 94 75.196 94 52C 94 28.804 75.196 10 52 10C 28.804 10 10 28.804 10 52C 10 75.196 28.804 94 52 94ZM 52 78.25C 66.4975 78.25 78.25 66.4975 78.25 52C 78.25 37.5025 66.4975 25.75 52 25.75C 37.5025 25.75 25.75 37.5025 25.75 52C 25.75 66.4975 37.5025 78.25 52 78.25Z"></path></g></g></g><g id="g-root-sy_2_Subtract_mfhgjwx2kl4w-stroke" data-item-order="-860465" transform="translate(476, 284)"><g id="sy_2_Subtract_mfhgjwx2kl4w-stroke" fill="none" stroke-linecap="round" stroke-linejoin="round" stroke-miterlimit="4" stroke="#1eabda" stroke-width="2"><g><path d="M 49.375 10L 10 10"></path></g></g></g><g id="g-root-sy_2_Subtract-start_dkgxe4x2kirt-stroke" data-item-order="-860463" transform="translate(515.375, 281.375)"><g id="sy_2_Subtract-start_dkgxe4x2kirt-stroke" fill="none" stroke-linecap="round" stroke-linejoin="round" stroke-miterlimit="4" stroke="#1eabda" stroke-width="2"><g><path d="M 12.625 10C 14.0738 10 15.25 11.1762 15.25 12.625C 15.25 14.0738 14.0738 15.25 12.625 15.25C 11.1762 15.25 10 14.0738 10 12.625C 10 11.1762 11.1762 10 12.625 10Z"></path></g></g></g><g id="g-root-sy_2_Subtract_1_94nf9ox2kjk2-stroke" data-item-order="-860459" transform="translate(353, 284)"><g id="sy_2_Subtract_1_94nf9ox2kjk2-stroke" fill="none" stroke-linecap="round" stroke-linejoin="round" stroke-miterlimit="4" stroke="#1eabda" stroke-width="2"><g><path d="M 10 10L 49 10"></path></g></g></g><g id="g-root-sy_2_Subtract-start_1_90f0sx2kkcr-stroke" data-item-order="-860457" transform="translate(347, 281)"><g id="sy_2_Subtract-start_1_90f0sx2kkcr-stroke" fill="none" stroke-linecap="round" stroke-linejoin="round" stroke-miterlimit="4" stroke="#1eabda" stroke-width="2"><g><path d="M 13 10C 11.3443 10 10 11.3443 10 13C 10 14.6557 11.3443 16 13 16C 14.6557 16 16 14.6557 16 13C 16 11.3443 14.6557 10 13 10Z"></path></g></g></g><g id="g-root-cp_2_lines_1_1uuayvgx2kkxw-stroke" data-item-order="-860450" transform="translate(426, 325.25)"><g id="cp_2_lines_1_1uuayvgx2kkxw-stroke" fill="none" stroke-linecap="round" stroke-linejoin="round" stroke-miterlimit="4" stroke="#ffffff" stroke-width="2"><g><path d="M 10 16L 10 10C 12.5913 10.5167 15.2656 10.7871 18 10.7871C 20.7344 10.7871 23.4087 10.5167 26 10.000001L 26 16M 26 53.5L 26 59.5C 23.4087 58.9833 20.7344 58.7129 18 58.7129C 15.2656 58.7129 12.5913 58.9833 10 59.5L 10 53.5M 26 53.5L 26 16M 10 16L 10 53.5"></path></g></g></g><g id="g-root-cp_3_g-3_1lzafpox2kiku-stroke" data-item-order="-860428" transform="translate(392, 374)"><g id="cp_3_g-3_1lzafpox2kiku-stroke" fill="none" stroke-linecap="round" stroke-linejoin="round" stroke-miterlimit="4" stroke="#ffffff" stroke-width="2"><g><path d="M 52 94C 75.196 94 94 75.196 94 52C 94 28.804 75.196 10 52 10C 28.804 10 10 28.804 10 52C 10 75.196 28.804 94 52 94ZM 52 78.25C 66.4975 78.25 78.25 66.4975 78.25 52C 78.25 37.5025 66.4975 25.75 52 25.75C 37.5025 25.75 25.75 37.5025 25.75 52C 25.75 66.4975 37.5025 78.25 52 78.25Z"></path></g></g></g><g id="g-root-sy_3_Subtract_1hjgxl8x2kjd4-stroke" data-item-order="-860421" transform="translate(476, 416)"><g id="sy_3_Subtract_1hjgxl8x2kjd4-stroke" fill="none" stroke-linecap="round" stroke-linejoin="round" stroke-miterlimit="4" stroke="#3cc583" stroke-width="2"><g><path d="M 49.375 10L 10 10"></path></g></g></g><g id="g-root-sy_3_Subtract-start_1d3nfgsx2kk5d-stroke" data-item-order="-860419" transform="translate(515.375, 413.375)"><g id="sy_3_Subtract-start_1d3nfgsx2kk5d-stroke" fill="none" stroke-linecap="round" stroke-linejoin="round" stroke-miterlimit="4" stroke="#3cc583" stroke-width="2"><g><path d="M 12.625 10C 14.0738 10 15.25 11.1762 15.25 12.625C 15.25 14.0738 14.0738 15.25 12.625 15.25C 11.1762 15.25 10 14.0738 10 12.625C 10 11.1762 11.1762 10 12.625 10Z"></path></g></g></g><g id="g-root-sy_3_Subtract_1_1480f7wx2kky2-stroke" data-item-order="-860415" transform="translate(353, 416)"><g id="sy_3_Subtract_1_1480f7wx2kky2-stroke" fill="none" stroke-linecap="round" stroke-linejoin="round" stroke-miterlimit="4" stroke="#3cc583" stroke-width="2"><g><path d="M 10 10L 49 10"></path></g></g></g><g id="g-root-sy_3_Subtract-start_1_zitsssx2lx4z-stroke" data-item-order="-860413" transform="translate(347, 413)"><g id="sy_3_Subtract-start_1_zitsssx2lx4z-stroke" fill="none" stroke-linecap="round" stroke-linejoin="round" stroke-miterlimit="4" stroke="#3cc583" stroke-width="2"><g><path d="M 13 10C 11.3443 10 10 11.3443 10 13C 10 14.6557 11.3443 16 13 16C 14.6557 16 16 14.6557 16 13C 16 11.3443 14.6557 10 13 10Z"></path></g></g></g><g id="g-root-cp_3_lines_2_qn6sjwx2lxxo-stroke" data-item-order="-860400" transform="translate(426, 457.25)"><g id="cp_3_lines_2_qn6sjwx2lxxo-stroke" fill="none" stroke-linecap="round" stroke-linejoin="round" stroke-miterlimit="4" stroke="#ffffff" stroke-width="2"><g><path d="M 10 16L 10 10C 12.5913 10.5167 15.2656 10.7871 18 10.7871C 20.7344 10.7871 23.4087 10.5167 26 10.000001L 26 16M 26 53.5L 26 59.5C 23.4087 58.9833 20.7344 58.7129 18 58.7129C 15.2656 58.7129 12.5913 58.9833 10 59.5L 10 53.5M 26 53.5L 26 16M 10 16L 10 53.5"></path></g></g></g><g id="g-root-cp_4_g-4_m7dafgx2lypy-stroke" data-item-order="-860372" transform="translate(392, 506)"><g id="cp_4_g-4_m7dafgx2lypy-stroke" fill="none" stroke-linecap="round" stroke-linejoin="round" stroke-miterlimit="4" stroke="#ffffff" stroke-width="2"><g><path d="M 52 94C 75.196 94 94 75.196 94 52C 94 28.804 75.196 10 52 10C 28.804 10 10 28.804 10 52C 10 75.196 28.804 94 52 94ZM 52 78.25C 66.4975 78.25 78.25 66.4975 78.25 52C 78.25 37.5025 66.4975 25.75 52 25.75C 37.5025 25.75 25.75 37.5025 25.75 52C 25.75 66.4975 37.5025 78.25 52 78.25Z"></path></g></g></g><g id="g-root-sy_4_Subtract_8wj958x2lx54-stroke" data-item-order="-860365" transform="translate(476, 548)"><g id="sy_4_Subtract_8wj958x2lx54-stroke" fill="none" stroke-linecap="round" stroke-linejoin="round" stroke-miterlimit="4" stroke="#92bd39" stroke-width="2"><g><path d="M 49.375 10L 10 10"></path></g></g></g><g id="g-root-sy_4_Subtract-start_8wj958x2lx55-stroke" data-item-order="-860363" transform="translate(515.375, 545.375)"><g id="sy_4_Subtract-start_8wj958x2lx55-stroke" fill="none" stroke-linecap="round" stroke-linejoin="round" stroke-miterlimit="4" stroke="#92bd39" stroke-width="2"><g><path d="M 12.625 10C 14.0738 10 15.25 11.1762 15.25 12.625C 15.25 14.0738 14.0738 15.25 12.625 15.25C 11.1762 15.25 10 14.0738 10 12.625C 10 11.1762 11.1762 10 12.625 10Z"></path></g></g></g><g id="g-root-sy_4_Subtract_1_4gpr0sx2lxxe-stroke" data-item-order="-860359" transform="translate(353, 548)"><g id="sy_4_Subtract_1_4gpr0sx2lxxe-stroke" fill="none" stroke-linecap="round" stroke-linejoin="round" stroke-miterlimit="4" stroke="#92bd39" stroke-width="2"><g><path d="M 10 10L 49 10"></path></g></g></g><g id="g-root-sy_4_Subtract-start_1_1um6sr0x2lyiz-stroke" data-item-order="-860357" transform="translate(347, 545)"><g id="sy_4_Subtract-start_1_1um6sr0x2lyiz-stroke" fill="none" stroke-linecap="round" stroke-linejoin="round" stroke-miterlimit="4" stroke="#92bd39" stroke-width="2"><g><path d="M 13 10C 11.3443 10 10 11.3443 10 13C 10 14.6557 11.3443 16 13 16C 14.6557 16 16 14.6557 16 13C 16 11.3443 14.6557 10 13 10Z"></path></g></g></g><g id="g-root-cp_4_lines_3_1q6damkx2lzb8-stroke" data-item-order="-860350" transform="translate(426, 589.25)"><g id="cp_4_lines_3_1q6damkx2lzb8-stroke" fill="none" stroke-linecap="round" stroke-linejoin="round" stroke-miterlimit="4" stroke="#ffffff" stroke-width="2"><g><path d="M 10 16L 10 10C 12.5913 10.5167 15.2656 10.7871 18 10.7871C 20.7344 10.7871 23.4087 10.5167 26 10.000001L 26 16M 26 53.5L 26 59.5C 23.4087 58.9833 20.7344 58.7129 18 58.7129C 15.2656 58.7129 12.5913 58.9833 10 59.5L 10 53.5M 26 53.5L 26 16M 10 16L 10 53.5"></path></g></g></g><g id="g-root-cp_5_g-5_1hbcrgsx2lwy6-stroke" data-item-order="-860328" transform="translate(392, 638)"><g id="cp_5_g-5_1hbcrgsx2lwy6-stroke" fill="none" stroke-linecap="round" stroke-linejoin="round" stroke-miterlimit="4" stroke="#ffffff" stroke-width="2"><g><path d="M 52 94C 75.196 94 94 75.196 94 52C 94 28.804 75.196 10 52 10C 28.804 10 10 28.804 10 52C 10 75.196 28.804 94 52 94ZM 52 78.25C 66.4975 78.25 78.25 66.4975 78.25 52C 78.25 37.5025 66.4975 25.75 52 25.75C 37.5025 25.75 25.75 37.5025 25.75 52C 25.75 66.4975 37.5025 78.25 52 78.25Z"></path></g></g></g><g id="g-root-sy_5_Subtract_1cvj9ccx2lxqg-stroke" data-item-order="-860321" transform="translate(476, 680)"><g id="sy_5_Subtract_1cvj9ccx2lxqg-stroke" fill="none" stroke-linecap="round" stroke-linejoin="round" stroke-miterlimit="4" stroke="#e0cb15" stroke-width="2"><g><path d="M 49.375 10L 10 10"></path></g></g></g><g id="g-root-sy_5_Subtract-start_zk2qz0x2lzbd-stroke" data-item-order="-860319" transform="translate(515.375, 677.375)"><g id="sy_5_Subtract-start_zk2qz0x2lzbd-stroke" fill="none" stroke-linecap="round" stroke-linejoin="round" stroke-miterlimit="4" stroke="#e0cb15" stroke-width="2"><g><path d="M 12.625 10C 14.0738 10 15.25 11.1762 15.25 12.625C 15.25 14.0738 14.0738 15.25 12.625 15.25C 11.1762 15.25 10 14.0738 10 12.625C 10 11.1762 11.1762 10 12.625 10Z"></path></g></g></g><g id="g-root-sy_5_Subtract_1_zk2qz0x2lzbe-stroke" data-item-order="-860315" transform="translate(353, 680)"><g id="sy_5_Subtract_1_zk2qz0x2lzbe-stroke" fill="none" stroke-linecap="round" stroke-linejoin="round" stroke-miterlimit="4" stroke="#e0cb15" stroke-width="2"><g><path d="M 10 10L 49 10"></path></g></g></g><g id="g-root-sy_5_Subtract-start_1_v4vpxox2lwxv-stroke" data-item-order="-860313" transform="translate(347, 677)"><g id="sy_5_Subtract-start_1_v4vpxox2lwxv-stroke" fill="none" stroke-linecap="round" stroke-linejoin="round" stroke-miterlimit="4" stroke="#e0cb15" stroke-width="2"><g><path d="M 13 10C 11.3443 10 10 11.3443 10 13C 10 14.6557 11.3443 16 13 16C 14.6557 16 16 14.6557 16 13C 16 11.3443 14.6557 10 13 10Z"></path></g></g></g><g id="g-root-cp_5_lines_4_m98posx2lxqk-stroke" data-item-order="-860302" transform="translate(426, 721.25)"><g id="cp_5_lines_4_m98posx2lxqk-stroke" fill="none" stroke-linecap="round" stroke-linejoin="round" stroke-miterlimit="4" stroke="#ffffff" stroke-width="2"><g><path d="M 10 16L 10 10C 12.5913 10.5167 15.2656 10.7871 18 10.7871C 20.7344 10.7871 23.4087 10.5167 26 10.000001L 26 16M 26 53.5L 26 59.5C 23.4087 58.9833 20.7344 58.7129 18 58.7129C 15.2656 58.7129 12.5913 58.9833 10 59.5L 10 53.5M 26 53.5L 26 16M 10 16L 10 53.5"></path></g></g></g><g id="g-root-cp_6_g-6_8xs7bgx2lzbi-stroke" data-item-order="-860274" transform="translate(392, 770)"><g id="cp_6_g-6_8xs7bgx2lzbi-stroke" fill="none" stroke-linecap="round" stroke-linejoin="round" stroke-miterlimit="4" stroke="#ffffff" stroke-width="2"><g><path d="M 52 94C 75.196 94 94 75.196 94 52C 94 28.804 75.196 10 52 10C 28.804 10 10 28.804 10 52C 10 75.196 28.804 94 52 94ZM 52 78.25C 66.4975 78.25 78.25 66.4975 78.25 52C 78.25 37.5025 66.4975 25.75 52 25.75C 37.5025 25.75 25.75 37.5025 25.75 52C 25.75 66.4975 37.5025 78.25 52 78.25Z"></path></g></g></g><g id="g-root-sy_6_Subtract_4il6a4x2lwy0-stroke" data-item-order="-860267" transform="translate(476, 812)"><g id="sy_6_Subtract_4il6a4x2lwy0-stroke" fill="none" stroke-linecap="round" stroke-linejoin="round" stroke-miterlimit="4" stroke="#de8431" stroke-width="2"><g><path d="M 49.375 10L 10 10"></path></g></g></g><g id="g-root-sy_6_Subtract-start_2ro5ox2lxq9-stroke" data-item-order="-860265" transform="translate(515.375, 809.375)"><g id="sy_6_Subtract-start_2ro5ox2lxq9-stroke" fill="none" stroke-linecap="round" stroke-linejoin="round" stroke-miterlimit="4" stroke="#de8431" stroke-width="2"><g><path d="M 12.625 10C 14.0738 10 15.25 11.1762 15.25 12.625C 15.25 14.0738 14.0738 15.25 12.625 15.25C 11.1762 15.25 10 14.0738 10 12.625C 10 11.1762 11.1762 10 12.625 10Z"></path></g></g></g><g id="g-root-sy_6_Subtract_1_1q88pvwx2lybu-stroke" data-item-order="-860261" transform="translate(353, 812)"><g id="sy_6_Subtract_1_1q88pvwx2lybu-stroke" fill="none" stroke-linecap="round" stroke-linejoin="round" stroke-miterlimit="4" stroke="#de8431" stroke-width="2"><g><path d="M 10 10L 49 10"></path></g></g></g><g id="g-root-sy_6_Subtract-start_1_1lsf7rgx2lz43-stroke" data-item-order="-860259" transform="translate(347, 809)"><g id="sy_6_Subtract-start_1_1lsf7rgx2lz43-stroke" fill="none" stroke-linecap="round" stroke-linejoin="round" stroke-miterlimit="4" stroke="#de8431" stroke-width="2"><g><path d="M 13 10C 11.3443 10 10 11.3443 10 13C 10 14.6557 11.3443 16 13 16C 14.6557 16 16 14.6557 16 13C 16 11.3443 14.6557 10 13 10Z"></path></g></g></g><g id="g-root-cp_6_lines_5_18hl6h8x2lxj8-stroke" data-item-order="-860252" transform="translate(426, 853.25)"><g id="cp_6_lines_5_18hl6h8x2lxj8-stroke" fill="none" stroke-linecap="round" stroke-linejoin="round" stroke-miterlimit="4" stroke="#ffffff" stroke-width="2"><g><path d="M 10 16L 10 10C 12.5913 10.5167 15.2656 10.7871 18 10.7871C 20.7344 10.7871 23.4087 10.5167 26 10.000001L 26 16M 26 53.5L 26 59.5C 23.4087 58.9833 20.7344 58.7129 18 58.7129C 15.2656 58.7129 12.5913 58.9833 10 59.5L 10 53.5M 26 53.5L 26 16M 10 16L 10 53.5"></path></g></g></g><g id="g-root-cp_7_g-7_zly68cx2lyby-stroke" data-item-order="-860228" transform="translate(392, 902)"><g id="cp_7_g-7_zly68cx2lyby-stroke" fill="none" stroke-linecap="round" stroke-linejoin="round" stroke-miterlimit="4" stroke="#ffffff" stroke-width="2"><g><path d="M 52 94C 75.196 94 94 75.196 94 52C 94 28.804 75.196 10 52 10C 28.804 10 10 28.804 10 52C 10 75.196 28.804 94 52 94ZM 52 78.25C 66.4975 78.25 78.25 66.4975 78.25 52C 78.25 37.5025 66.4975 25.75 52 25.75C 37.5025 25.75 25.75 37.5025 25.75 52C 25.75 66.4975 37.5025 78.25 52 78.25Z"></path></g></g></g><g id="g-root-sy_7_Subtract_v64o3wx2lz48-stroke" data-item-order="-860221" transform="translate(476, 944)"><g id="sy_7_Subtract_v64o3wx2lz48-stroke" fill="none" stroke-linecap="round" stroke-linejoin="round" stroke-miterlimit="4" stroke="#e55753" stroke-width="2"><g><path d="M 49.375 10L 10 10"></path></g></g></g><g id="g-root-sy_7_Subtract-start_qqb5zgx2lzwh-stroke" data-item-order="-860219" transform="translate(515.375, 941.375)"><g id="sy_7_Subtract-start_qqb5zgx2lzwh-stroke" fill="none" stroke-linecap="round" stroke-linejoin="round" stroke-miterlimit="4" stroke="#e55753" stroke-width="2"><g><path d="M 12.625 10C 14.0738 10 15.25 11.1762 15.25 12.625C 15.25 14.0738 14.0738 15.25 12.625 15.25C 11.1762 15.25 10 14.0738 10 12.625C 10 11.1762 11.1762 10 12.625 10Z"></path></g></g></g><g id="g-root-sy_7_Subtract_1_hvamtox2lxje-stroke" data-item-order="-860215" transform="translate(353, 944)"><g id="sy_7_Subtract_1_hvamtox2lxje-stroke" fill="none" stroke-linecap="round" stroke-linejoin="round" stroke-miterlimit="4" stroke="#e55753" stroke-width="2"><g><path d="M 10 10L 49 10"></path></g></g></g><g id="g-root-sy_7_Subtract-start_1_dfh4p8x2lybn-stroke" data-item-order="-860213" transform="translate(347, 941)"><g id="sy_7_Subtract-start_1_dfh4p8x2lybn-stroke" fill="none" stroke-linecap="round" stroke-linejoin="round" stroke-miterlimit="4" stroke="#e55753" stroke-width="2"><g><path d="M 13 10C 11.3443 10 10 11.3443 10 13C 10 14.6557 11.3443 16 13 16C 14.6557 16 16 14.6557 16 13C 16 11.3443 14.6557 10 13 10Z"></path></g></g></g><g id="g-root-ic_smar_40mbwx2rjt6-stroke" data-item-order="-2304" transform="translate(290, 518)"></g><g id="g-root-ic_male_1464zykx2syyq-stroke" data-item-order="-2304" transform="translate(290, 782)"></g><g id="g-root-ic_1_1d1s07gx2ndhm-stroke" data-item-order="-2304" transform="translate(530, 386)"></g><g id="g-root-ic_1_1lqjsi4x2sy6j-stroke" data-item-order="-2304" transform="translate(530, 650)"></g><g id="g-root-ic_chec_hrjsb0x2ndos-stroke" data-item-order="-2304" transform="translate(290, 254)"></g><g id="g-root-ic_fema_qrk45ox2udj7-stroke" data-item-order="-2304" transform="translate(530, 914)"></g><g id="g-root-ic_text_v803d8x2ly4o-stroke" data-item-order="-2304" transform="translate(530, 122)"></g><g id="g-root-tx_phonever_zs6x3gx2rklc-stroke" data-item-order="0" transform="translate(230, 668)"></g><g id="g-root-tx_5_qtfjf0x2sydj-stroke" data-item-order="0" transform="translate(422, 662)"></g><g id="g-root-tx_userente_mgqeq4x2rm69-stroke" data-item-order="0" transform="translate(590, 650)"></g><g id="g-root-tx__deunm4x2rle1-stroke" data-item-order="0" transform="translate(266, 578)"></g><g id="g-root-tx_phoneotp_940y6kx2rll2-stroke" data-item-order="0" transform="translate(530, 536)"></g><g id="g-root-tx_4_1hiugi4x2rldz-stroke" data-item-order="0" transform="translate(422, 530)"></g><g id="g-root-tx_otpsentt_qqb5zgx2rjt4-stroke" data-item-order="0" transform="translate(50, 518)"></g><g id="g-root-tx__9rt8x2szyi-stroke" data-item-order="0" transform="translate(590, 710)"></g><g id="g-root-tx_useracco_74zrgx2sydk-stroke" data-item-order="0" transform="translate(86, 782)"></g><g id="g-root-tx__1qd8iksx2nbwp-stroke" data-item-order="0" transform="translate(590, 446)"></g><g id="g-root-tx_emailver_v991jgx2ndon-stroke" data-item-order="0" transform="translate(242, 404)"></g><g id="g-root-tx_6_hu1ongx2ufbj-stroke" data-item-order="0" transform="translate(422, 794)"></g><g id="g-root-tx_userente_dili4sx2ncw0-stroke" data-item-order="0" transform="translate(590, 386)"></g><g id="g-root-tx_3_1hclpn0x2rjt3-stroke" data-item-order="0" transform="translate(422, 398)"></g><g id="g-root-tx__qn6sjwx2ncw3-stroke" data-item-order="0" transform="translate(266, 314)"></g><g id="g-root-tx_emailotp_dgq2vgx2ndvp-stroke" data-item-order="0" transform="translate(530, 272)"></g><g id="g-root-tx_accountc_141579ox2ucxy-stroke" data-item-order="0" transform="translate(530, 800)"></g><g id="g-root-tx__1lwsjd8x2szrd-stroke" data-item-order="0" transform="translate(266, 842)"></g><g id="g-root-tx_2_1lvjl70x2ndom-stroke" data-item-order="0" transform="translate(422, 266)"></g><g id="g-root-tx_otpsentt_1480f7wx2lzwi-stroke" data-item-order="0" transform="translate(50, 254)"></g><g id="g-root-tx_7_vbqxvwx2ufbj-stroke" data-item-order="0" transform="translate(422, 926)"></g><g id="g-root-tx__v7dma4x2ucqy-stroke" data-item-order="0" transform="translate(590, 974)"></g><g id="g-root-tx_userredi_18i7nkcx2uebt-stroke" data-item-order="0" transform="translate(590, 914)"></g><g id="g-root-tx_redirect_1uoop3gx2uf40-stroke" data-item-order="0" transform="translate(170, 932)"></g><g id="g-root-tx_userente_1qa4558x2lxcd-stroke" data-item-order="0" transform="translate(206, 140)"></g><g id="g-root-tx_userprov_1cynmrwx2lyxa-stroke" data-item-order="0" transform="translate(590, 122)"></g><g id="g-root-tx_1_1lzafpox2lxjd-stroke" data-item-order="0" transform="translate(422, 134)"></g><g id="g-root-tx_usersign_4ju4gcx2lz4c-stroke" data-item-order="0" transform="translate(284, 38)"></g><g id="g-root-tx__zntlhox2lxcf-stroke" data-item-order="0" transform="translate(590, 182)"></g></g></g><path id="w140hrf0xmnx1e" d="M65.283 12.757a.35.35 0 0 0 .584.157l5.203-5.141-6.183 3.523.396 1.461zm-2.216-11.7a.35.35 0 0 0-.522.305v3.111l3.276-1.868-2.754-1.548zm3.728 2.105l-4.25 2.421v2.445l6.391-3.644-2.141-1.222zm4.708 3.303a.35.35 0 0 0 0-.609l-1.592-.9-7.365 4.199v1.782a.35.35 0 0 0 .523.305l8.435-4.777z M44.542 2.513c0-.433.355-.783.792-.783s.792.35.792.783-.355.783-.792.783-.792-.35-.792-.783zm59.171 0c0-.433.355-.783.792-.783s.792.35.792.783-.355.783-.792.783-.792-.35-.792-.783zm-85.951 7.636h-1.27v-.487c-.276.201-.864.609-1.881.609-1.202 0-2.274-.794-2.137-2.078.118-1.106 1.153-1.584 1.848-1.727l2.17-.345c0-.539-.29-.956-1.064-1.006s-1.21.305-1.571 1.017l-1.124-.605c1.218-2.631 5.029-1.764 5.029.414v4.207zm-1.27-2.86c.006.396-.062 1.112-.819 1.59-.587.37-1.841.299-1.903-.395-.049-.555.461-.791.906-.898l1.816-.297zm72.662 2.86h-1.27v-.487c-.276.201-.864.609-1.881.609-1.202 0-2.274-.794-2.137-2.078.118-1.106 1.153-1.584 1.848-1.727l2.17-.345c0-.539-.29-.956-1.064-1.006s-1.21.305-1.571 1.017l-1.124-.605c1.218-2.631 5.029-1.764 5.029.414v4.207zm-1.27-2.86c.006.396-.062 1.112-.82 1.59-.587.37-1.841.299-1.903-.395-.049-.555.461-.791.906-.898l1.816-.297zM99.096 10.149H97.85v-8.45h1.246v4.895l2.68-2.559h1.738l-2.633 2.535 2.715 3.578h-1.556l-2.077-2.707-.867.844v1.863zm6.053-6.114h-1.255v6.113h1.255V4.035zm-59.2 0h-1.255v6.113h1.255V4.035zm5.584 6.113V1.697h1.255v2.695c.361-.346 1-.485 1.47-.485 1.452 0 2.477 1.082 2.457 2.448v3.792h-1.27v-3.68c0-.408-.214-1.339-1.315-1.339-.968 0-1.342.756-1.342 1.339v3.681h-1.255zm-4.76-4.894V4.039h.621a.45.45 0 0 0 .45-.45v-.855h1.251v1.305h1.309v1.215h-1.309v3.109c0 .293.105.664.648.664.365 0 .531-.035.736-.07v1.137s-.361.113-.857.113c-1.398 0-1.777-1.051-1.777-1.788V5.254h-1.071zM36.528 4.039h-1.394l2.191 6.106h1.125l1.234-3.918 1.238 3.918h1.129l2.188-6.106h-1.383l-1.359 3.93-1.256-3.93h-1.124l-1.242 3.957-1.348-3.957zM26.212 7.141c-.02 1.566 1.187 3.129 3.223 3.129 1.566 0 2.383-.918 2.734-1.719L31.172 8c-.315.399-.801 1.094-1.738 1.094-1.145 0-1.825-.781-1.891-1.52h4.625c.074-.284.148-.995-.03-1.559-.336-1.064-1.221-2.102-2.839-2.102s-3.088 1.152-3.088 3.227zm1.363-.75h3.348c-.055-.43-.566-1.301-1.623-1.301a1.79 1.79 0 0 0-1.725 1.301zm-8.758.75c.038 1.758 1.277 3.133 3.145 3.133 1.074 0 1.723-.477 1.961-.672v.547h1.242V1.703h-1.258v2.888c-.414-.36-1.062-.68-1.93-.68-1.91 0-3.198 1.473-3.16 3.23zm1.309-.08c0 1.119.723 1.978 1.836 1.978a1.88 1.88 0 0 0 1.94-1.904c0-1.371-1.011-1.99-1.972-1.99s-1.805.798-1.805 1.916zm76.683-.028C96.771 5.275 95.532 3.9 93.664 3.9c-1.074 0-1.723.477-1.961.672v-.547h-1.242v8.22h1.258V9.583c.414.36 1.063.68 1.93.68 1.91 0 3.198-1.473 3.16-3.23zm-1.309.08c0-1.119-.723-1.978-1.836-1.978a1.88 1.88 0 0 0-1.94 1.904c0 1.371 1.011 1.99 1.972 1.99S95.5 8.231 95.5 7.113zM106.441 10.173V4.036h1.254v.382c.361-.346 1-.485 1.47-.485 1.452 0 2.477 1.082 2.457 2.448v3.792h-1.27V6.492c0-.408-.214-1.339-1.315-1.339-.969 0-1.342.756-1.342 1.339v3.681h-1.254zm-30.383-.021V1.824h1.084l4.215 5.777V1.824h1.32v8.328h-1.094l-4.207-5.796v5.796h-1.319zM5.24 10.149H4V2.377h1.014l2.664 3.597 2.654-3.592h1.03v7.766h-1.256V4.762L7.678 8.068 5.24 4.742v5.407z" transform="translate(776, 1058)" fill="#80808088" stroke="none"></path></svg>