<?xml version="1.0" encoding="utf-8" standalone="yes"?>
<!DOCTYPE svg PUBLIC "-//W3C//DTD SVG 1.1//EN" "http://www.w3.org/Graphics/SVG/1.1/DTD/svg11.dtd">
<svg width="944" height="1389" viewBox="0 0 944 1389" style="fill:none;stroke:none;fill-rule:evenodd;clip-rule:evenodd;stroke-linecap:round;stroke-linejoin:round;stroke-miterlimit:1.5;" version="1.1" xmlns="http://www.w3.org/2000/svg" xmlns:xlink="http://www.w3.org/1999/xlink"><style class="text-font-style fontImports" data-font-family="Roboto">@import url('https://fonts.googleapis.com/css2?family=Roboto:wght@400;700&amp;display=block');</style><g id="items" style="isolation: isolate"><g id="blend" style="mix-blend-mode: normal"><g id="g-root-di_qn6sqiv4x899-fill" data-item-order="999966618" transform="translate(89.99905395507812, 701.029052734375)"><g id="di_qn6sqiv4x899-fill" stroke="none" fill="#fff2e5"><g><path d="M 10.000946 68.791008L 151.940946 127.591008L 293.880946 68.791008L 151.940946 10.001008Z"></path></g></g></g><g id="g-root-di_qu20oqv4x6oa-fill" data-item-order="999966619" transform="translate(625.8822631835938, 701.029296875)"><g id="di_qu20oqv4x6oa-fill" stroke="none" fill="#fff2e5"><g><path d="M 10 68.790244L 151.94 127.590244L 293.88 68.790244L 151.94 10.000244Z"></path></g></g></g><g id="g-root-ro_1q9herev55p1l-fill" data-item-order="999979264" transform="translate(375.882080078125, 274)"><g id="ro_1q9herev55p1l-fill" stroke="none" fill="#e8f9ff"><g><path d="M 22 10L 214 10C 214 10 226 10 226 22L 226 94C 226 94 226 106 214 106L 22 106C 22 106 10 106 10 94L 10 22C 10 22 10 10 22 10"></path></g></g></g><g id="g-root-ro_1hjgoaiv52vbi-fill" data-item-order="999980416" transform="translate(381.882080078125, 122)"><g id="ro_1hjgoaiv52vbi-fill" stroke="none" fill="#f5f5f5"><g><path d="M 22 10L 202 10C 202 10 214 10 214 22L 214 94C 214 94 214 106 202 106L 22 106C 22 106 10 106 10 94L 10 22C 10 22 10 10 22 10"></path></g></g></g><g id="g-root-ro_4otxbuv4vuo3-fill" data-item-order="999980416" transform="translate(671.8232421875, 554)"><g id="ro_4otxbuv4vuo3-fill" stroke="none" fill="#e8f9ff"><g><path d="M 22 10L 202 10C 202 10 214 10 214 22L 214 94C 214 94 214 106 202 106L 22 106C 22 106 10 106 10 94L 10 22C 10 22 10 10 22 10"></path></g></g></g><g id="g-root-ro_1lsf7y2v4ym19-fill" data-item-order="999982720" transform="translate(345.882080078125, 1234.3818359375)"><g id="ro_1lsf7y2v4ym19-fill" stroke="none" fill="#e8f9ff"><g><path d="M 22 10L 178 10C 178 10 190 10 190 22L 190 94C 190 94 190 106 178 106L 22 106C 22 106 10 106 10 94L 10 22C 10 22 10 10 22 10"></path></g></g></g><g id="g-root-ro_v64oaiv4orut-fill" data-item-order="999982720" transform="translate(141.9410400390625, 554)"><g id="ro_v64oaiv4orut-fill" stroke="none" fill="#e8f9ff"><g><path d="M 22 10L 178 10C 178 10 190 10 190 22L 190 94C 190 94 190 106 178 106L 22 106C 22 106 10 106 10 94L 10 22C 10 22 10 10 22 10"></path></g></g></g><g id="g-root-ro_1hjgxruv4yl8g-fill" data-item-order="999985024" transform="translate(14, 1234.3818359375)"><g id="ro_1hjgxruv4yl8g-fill" stroke="none" fill="#e8f9ff"><g><path d="M 22 10L 154 10C 154 10 166 10 166 22L 166 94C 166 94 166 106 154 106L 22 106C 22 106 10 106 10 94L 10 22C 10 22 10 10 22 10"></path></g></g></g><g id="g-root-ro_1ur6lmiv4x894-fill" data-item-order="999986176" transform="translate(381.882080078125, 706)"><g id="ro_1ur6lmiv4x894-fill" stroke="none" fill="#e8f9ff"><g><path d="M 22 10L 190 10C 190 10 202 10 202 22L 202 70C 202 70 202 82 190 82L 22 82C 22 82 10 82 10 70L 10 22C 10 22 10 10 22 10"></path></g></g></g><g id="g-root-ro_1ulkbuiv4q8lk-fill" data-item-order="999986176" transform="translate(405.882080078125, 554)"><g id="ro_1ulkbuiv4q8lk-fill" stroke="none" fill="#e8f9ff"><g><path d="M 22 10L 142 10C 142 10 154 10 154 22L 154 94C 154 94 154 106 142 106L 22 106C 22 106 10 106 10 94L 10 22C 10 22 10 10 22 10"></path></g></g></g><g id="g-root-ro_1d30p2yv573f3-fill" data-item-order="999987040" transform="translate(393.882080078125, 426)"><g id="ro_1d30p2yv573f3-fill" stroke="none" fill="#e8f9ff"><g><path d="M 22 10L 178 10C 178 10 190 10 190 22L 190 70C 190 70 190 82 178 82L 22 82C 22 82 10 82 10 70L 10 22C 10 22 10 10 22 10"></path></g></g></g><g id="g-root-ro_4myi2iv500lf-fill" data-item-order="999987040" transform="translate(102, 925.646728515625)"><g id="ro_4myi2iv500lf-fill" stroke="none" fill="#e8f9ff"><g><path d="M 22 10L 178 10C 178 10 190 10 190 22L 190 70C 190 70 190 82 178 82L 22 82C 22 82 10 82 10 70L 10 22C 10 22 10 10 22 10"></path></g></g></g><g id="g-root-ro_4mybqyv4lyiq-fill" data-item-order="999987040" transform="translate(683.8232421875, 426)"><g id="ro_4mybqyv4lyiq-fill" stroke="none" fill="#e8f9ff"><g><path d="M 22 10L 178 10C 178 10 190 10 190 22L 190 70C 190 70 190 82 178 82L 22 82C 22 82 10 82 10 70L 10 22C 10 22 10 10 22 10"></path></g></g></g><g id="g-root-ro_4jtv5mv5711o-fill" data-item-order="999987040" transform="translate(147.9410400390625, 426)"><g id="ro_4jtv5mv5711o-fill" stroke="none" fill="#e8f9ff"><g><path d="M 22 10L 178 10C 178 10 190 10 190 22L 190 70C 190 70 190 82 178 82L 22 82C 22 82 10 82 10 70L 10 22C 10 22 10 10 22 10"></path></g></g></g><g id="g-root-di_uxoavelkw0-fill" data-item-order="999988594" transform="translate(231.940673828125, 1081.646728515625)"><g id="di_uxoavelkw0-fill" stroke="none" fill="#fff2e5"><g><path d="M 10.000244 44.37L 92.970244 78.74L 175.940244 44.37L 92.970244 10Z"></path></g></g></g><g id="g-root-ro_zs6xa2v573m6-fill" data-item-order="999989632" transform="translate(290, 925.646728515625)"><g id="ro_zs6xa2v573m6-fill" stroke="none" fill="#e8f9ff"><g><path d="M 22 10L 142 10C 142 10 154 10 154 22L 154 70C 154 70 154 82 142 82L 22 82C 22 82 10 82 10 70L 10 22C 10 22 10 10 22 10"></path></g></g></g><g id="g-root-tx_no_4mapkqvepszp-fill" data-item-order="1000000000" transform="translate(195.94091796875, 1128.01416015625)"><g id="tx_no_4mapkqvepszp-fill" stroke="none" fill="#484848"><g><text style="font: 15px Roboto, sans-serif; white-space: pre;" font-size="15px" font-family="Roboto, sans-serif"><tspan x="12" y="30.6" dominant-baseline="ideographic">No</tspan></text></g></g></g><g id="g-root-tx_userauth_hsrf96ver6yw-fill" data-item-order="1000000000" transform="translate(287.8822021484375, 38)"><g id="tx_userauth_hsrf96ver6yw-fill" stroke="none" fill="#484848"><g><text style="font: bold 25px Roboto, sans-serif; white-space: pre;" font-weight="bold" font-size="25px" font-family="Roboto, sans-serif"><tspan x="13.69" y="42.6" dominant-baseline="ideographic">User Authentication Methods</tspan></text></g></g></g><g id="g-root-tx_yes_mcy8zeveptsc-fill" data-item-order="1000000000" transform="translate(779.8232421875, 813.646728515625)"><g id="tx_yes_mcy8zeveptsc-fill" stroke="none" fill="#484848"><g><text style="font: 15px Roboto, sans-serif; white-space: pre;" font-size="15px" font-family="Roboto, sans-serif"><tspan x="12" y="30.6" dominant-baseline="ideographic">Yes</tspan></text></g></g></g><g id="g-root-tx_yes_1luvsvuvepszm-fill" data-item-order="1000000000" transform="translate(243.9410400390625, 813.646728515625)"><g id="tx_yes_1luvsvuvepszm-fill" stroke="none" fill="#484848"><g><text style="font: 15px Roboto, sans-serif; white-space: pre;" font-size="15px" font-family="Roboto, sans-serif"><tspan x="12" y="30.6" dominant-baseline="ideographic">Yes</tspan></text></g></g></g><g id="g-root-tx_yes_1qckq9mvepr7q-fill" data-item-order="1000000000" transform="translate(326.9114990234375, 1150.3818359375)"><g id="tx_yes_1qckq9mvepr7q-fill" stroke="none" fill="#484848"><g><text style="font: 15px Roboto, sans-serif; white-space: pre;" font-size="15px" font-family="Roboto, sans-serif"><tspan x="12" y="30.6" dominant-baseline="ideographic">Yes</tspan></text></g></g></g><g id="g-root-tx_no_zoercqveps7f-fill" data-item-order="1000000000" transform="translate(601.882080078125, 771.8232421875)"><g id="tx_no_zoercqveps7f-fill" stroke="none" fill="#484848"><g><text style="font: 15px Roboto, sans-serif; white-space: pre;" font-size="15px" font-family="Roboto, sans-serif"><tspan x="12" y="30.6" dominant-baseline="ideographic">No</tspan></text></g></g></g><g id="g-root-tx_no_hvvsoqvepseh-fill" data-item-order="1000000000" transform="translate(66, 771.8232421875)"><g id="tx_no_hvvsoqvepseh-fill" stroke="none" fill="#484848"><g><text style="font: 15px Roboto, sans-serif; white-space: pre;" font-size="15px" font-family="Roboto, sans-serif"><tspan x="12" y="30.6" dominant-baseline="ideographic">No</tspan></text></g></g></g><g id="g-root-cu_qwilmiveprt4-fill" data-item-order="1000000002" transform="translate(767.8231811523438, 650)"></g><g id="g-root-cu_1qdtofuvepte7-fill" data-item-order="1000000002" transform="translate(773.8232421875, 498)"></g><g id="g-root-cu_8cmpmvepssk-fill" data-item-order="1000000002" transform="translate(477.882080078125, 498)"></g><g id="g-root-cu_4o64u2veps09-fill" data-item-order="1000000002" transform="translate(231.9410400390625, 498)"></g><g id="g-root-cu_1cuvh16ver66h-fill" data-item-order="1000000002" transform="translate(192, 997.646728515625)"></g><g id="g-root-cu_vbpmnuvepu6l-fill" data-item-order="1000000002" transform="translate(477.882080078125, 650)"></g><g id="g-root-cu_8gl6ver6dq-fill" data-item-order="1000000002" transform="translate(70, 759.823486328125)"></g><g id="g-root-cu_1ly06bevepu6i-fill" data-item-order="1000000002" transform="translate(231.9410400390625, 650)"></g><g id="g-root-cu_1ha2i2iver8jy-fill" data-item-order="1000000002" transform="translate(362, 759.823486328125)"></g><g id="g-root-cu_145h7neveptlb-fill" data-item-order="1000000002" transform="translate(483.882080078125, 218)"></g><g id="g-root-cu_1ulj0fuver6yx-fill" data-item-order="1000000002" transform="translate(192, 778)"></g><g id="g-root-cu_hz064aveptl1-fill" data-item-order="1000000002" transform="translate(483.882080078125, 370)"></g><g id="g-root-cu_zjeynuver7ri-fill" data-item-order="1000000002" transform="translate(92, 1116.0145263671875)"></g><g id="g-root-cu_mgp3i2vepslf-fill" data-item-order="1000000002" transform="translate(73, 818.6177978515625)"></g><g id="g-root-cu_meto8qvepssq-fill" data-item-order="1000000002" transform="translate(237.9410400390625, 370)"></g><g id="g-root-cu_18f1ywqver6ys-fill" data-item-order="1000000002" transform="translate(314.9114990234375, 1150.3822021484375)"></g><g id="g-root-cu_1q5pibever7r8-fill" data-item-order="1000000002" transform="translate(435.882080078125, 818.6175537109375)"></g><g id="g-root-cu_93zmyivepr7z-fill" data-item-order="1000000002" transform="translate(483.882080078125, 370)"></g><g id="g-root-tx_authenti_1qf3y0qv4vsw4-fill" data-item-order="2000000000" transform="translate(159.94113159179688, 735.823486328125)"><g id="tx_authenti_1qf3y0qv4vsw4-fill" stroke="none" fill="#de8431"><g><text style="font: 20px Roboto, sans-serif; white-space: pre;" font-size="20px" font-family="Roboto, sans-serif"><tspan x="14.62" y="34" dominant-baseline="ideographic">Authentication </tspan><tspan x="25.82" y="58" dominant-baseline="ideographic">Successful?</tspan></text></g></g></g><g id="g-root-ic_time_mcd3ayv4x8g7-fill" data-item-order="2000000000" transform="translate(393.882080078125, 727)"></g><g id="g-root-tx_authenti_1d0j27uv4x7gh-fill" data-item-order="2000000000" transform="translate(695.8231201171875, 735.8233642578125)"><g id="tx_authenti_1d0j27uv4x7gh-fill" stroke="none" fill="#de8431"><g><text style="font: 20px Roboto, sans-serif; white-space: pre;" font-size="20px" font-family="Roboto, sans-serif"><tspan x="14.62" y="34" dominant-baseline="ideographic">Authentication </tspan><tspan x="25.82" y="58" dominant-baseline="ideographic">Successful?</tspan></text></g></g></g><g id="g-root-tx_clickslo_1lxf0myv4vuo1-fill" data-item-order="2000000000" transform="translate(719.8232421875, 578)"><g id="tx_clickslo_1lxf0myv4vuo1-fill" stroke="none" fill="#1eabda"><g><text style="font: 20px Roboto, sans-serif; white-space: pre;" font-size="20px" font-family="Roboto, sans-serif"><tspan x="12" y="34" dominant-baseline="ideographic">Clicks "Login </tspan><tspan x="12" y="58" dominant-baseline="ideographic">with Google</tspan></text></g></g></g><g id="g-root-ic_2_i0afp6v4vt36-fill" data-item-order="2000000000" transform="translate(683.8232421875, 587)"></g><g id="g-root-ic_numb_dbqad6v4q6fj-fill" data-item-order="2000000000" transform="translate(417.882080078125, 587)"></g><g id="g-root-ic_pass_1cws7p6v4osng-fill" data-item-order="2000000000" transform="translate(153.9410400390625, 587)"></g><g id="g-root-tx_entersph_1d30ykav4ou86-fill" data-item-order="2000000000" transform="translate(453.882080078125, 566)"><g id="tx_entersph_1d30ykav4ou86-fill" stroke="none" fill="#1eabda"><g><text style="font: 20px Roboto, sans-serif; white-space: pre;" font-size="20px" font-family="Roboto, sans-serif"><tspan x="12" y="34" dominant-baseline="ideographic">Enters </tspan><tspan x="12" y="58" dominant-baseline="ideographic">Phone </tspan><tspan x="12" y="82" dominant-baseline="ideographic">Number</tspan></text></g></g></g><g id="g-root-tx_entersem_htf7qyv4or9n-fill" data-item-order="2000000000" transform="translate(189.9410400390625, 566)"><g id="tx_entersem_htf7qyv4or9n-fill" stroke="none" fill="#1eabda"><g><text style="font: 20px Roboto, sans-serif; white-space: pre;" font-size="20px" font-family="Roboto, sans-serif"><tspan x="12" y="34" dominant-baseline="ideographic">Enters Email </tspan><tspan x="12" y="58" dominant-baseline="ideographic">and </tspan><tspan x="12" y="82" dominant-baseline="ideographic">Password</tspan></text></g></g></g><g id="g-root-tx_loginwit_18k2woqv4m03k-fill" data-item-order="2000000000" transform="translate(731.8232421875, 438)"><g id="tx_loginwit_18k2woqv4m03k-fill" stroke="none" fill="#1eabda"><g><text style="font: 20px Roboto, sans-serif; white-space: pre;" font-size="20px" font-family="Roboto, sans-serif"><tspan x="12" y="34" dominant-baseline="ideographic">Login with </tspan><tspan x="12" y="58" dominant-baseline="ideographic">Google</tspan></text></g></g></g><g id="g-root-ic_goog_hxsd16v4m03l-fill" data-item-order="2000000000" transform="translate(695.8232421875, 447)"></g><g id="g-root-ic_1_hxsjcqv5026a-fill" data-item-order="2000000000" transform="translate(114, 946.646728515625)"></g><g id="g-root-tx_entersot_zp2juiv4zzt5-fill" data-item-order="2000000000" transform="translate(150, 949.646728515625)"><g id="tx_entersot_zp2juiv4zzt5-fill" stroke="none" fill="#1eabda"><g><text style="font: 20px Roboto, sans-serif; white-space: pre;" font-size="20px" font-family="Roboto, sans-serif"><tspan x="12" y="34" dominant-baseline="ideographic">Enters OTP</tspan></text></g></g></g><g id="g-root-ic_add_1lzafwav5718l-fill" data-item-order="2000000000" transform="translate(302, 946.646728515625)"></g><g id="g-root-tx_profilec_i0afp6v570ng-fill" data-item-order="2000000000" transform="translate(338, 937.646728515625)"><g id="tx_profilec_i0afp6v570ng-fill" stroke="none" fill="#1eabda"><g><text style="font: 20px Roboto, sans-serif; white-space: pre;" font-size="20px" font-family="Roboto, sans-serif"><tspan x="12" y="34" dominant-baseline="ideographic">Profile </tspan><tspan x="12" y="58" dominant-baseline="ideographic">Created</tspan></text></g></g></g><g id="g-root-ic_1_905q2v5718m-fill" data-item-order="2000000000" transform="translate(405.882080078125, 447)"></g><g id="g-root-ic_lock_1414xyyv573er-fill" data-item-order="2000000000" transform="translate(159.9410400390625, 447)"></g><g id="g-root-tx_loginwit_qvapdmv5718l-fill" data-item-order="2000000000" transform="translate(441.882080078125, 438)"><g id="tx_loginwit_qvapdmv5718l-fill" stroke="none" fill="#1eabda"><g><text style="font: 20px Roboto, sans-serif; white-space: pre;" font-size="20px" font-family="Roboto, sans-serif"><tspan x="12" y="34" dominant-baseline="ideographic">Login with </tspan><tspan x="12" y="58" dominant-baseline="ideographic">Phone</tspan></text></g></g></g><g id="g-root-tx_otpvalid_m7bz7evelkwf-fill" data-item-order="2000000000" transform="translate(260.9115295410156, 1104.0142822265625)"><g id="tx_otpvalid_m7bz7evelkwf-fill" stroke="none" fill="#de8431"><g><text style="font: 20px Roboto, sans-serif; white-space: pre;" font-size="20px" font-family="Roboto, sans-serif"><tspan x="15.68" y="34" dominant-baseline="ideographic">OTP Valid?</tspan></text></g></g></g><g id="g-root-tx_loginwit_8xry0qv5720y-fill" data-item-order="2000000000" transform="translate(195.9410400390625, 438)"><g id="tx_loginwit_8xry0qv5720y-fill" stroke="none" fill="#1eabda"><g><text style="font: 20px Roboto, sans-serif; white-space: pre;" font-size="20px" font-family="Roboto, sans-serif"><tspan x="12" y="34" dominant-baseline="ideographic">Login with </tspan><tspan x="12" y="58" dominant-baseline="ideographic">Email</tspan></text></g></g></g><g id="g-root-ic_onli_8xs7i2v4yn0k-fill" data-item-order="2000000000" transform="translate(357.882080078125, 1267.3818359375)"></g><g id="g-root-ic_orde_qqawoqv55og0-fill" data-item-order="2000000000" transform="translate(387.882080078125, 307)"></g><g id="g-root-tx_displays_1465056v4ynt2-fill" data-item-order="2000000000" transform="translate(62, 1246.3818359375)"><g id="tx_displays_1465056v4ynt2-fill" stroke="none" fill="#1eabda"><g><text style="font: 20px Roboto, sans-serif; white-space: pre;" font-size="20px" font-family="Roboto, sans-serif"><tspan x="12" y="34" dominant-baseline="ideographic">Displays </tspan><tspan x="12" y="58" dominant-baseline="ideographic">Error </tspan><tspan x="12" y="82" dominant-baseline="ideographic">Message</tspan></text></g></g></g><g id="g-root-tx_selectsa_v48zjuv55onj-fill" data-item-order="2000000000" transform="translate(423.882080078125, 286)"><g id="tx_selectsa_v48zjuv55onj-fill" stroke="none" fill="#1eabda"><g><text style="font: 20px Roboto, sans-serif; white-space: pre;" font-size="20px" font-family="Roboto, sans-serif"><tspan x="12" y="34" dominant-baseline="ideographic">Selects </tspan><tspan x="12" y="58" dominant-baseline="ideographic">Authentication </tspan><tspan x="12" y="82" dominant-baseline="ideographic">Method</tspan></text></g></g></g><g id="g-root-tx_redirect_13zw9a2v4ym8b-fill" data-item-order="2000000000" transform="translate(393.882080078125, 1246.3818359375)"><g id="tx_redirect_13zw9a2v4ym8b-fill" stroke="none" fill="#1eabda"><g><text style="font: 20px Roboto, sans-serif; white-space: pre;" font-size="20px" font-family="Roboto, sans-serif"><tspan x="12" y="34" dominant-baseline="ideographic">Redirected </tspan><tspan x="12" y="58" dominant-baseline="ideographic">to </tspan><tspan x="12" y="82" dominant-baseline="ideographic">Dashboard</tspan></text></g></g></g><g id="g-root-tx_usernavi_1urst8av52tc4-fill" data-item-order="2000000000" transform="translate(429.882080078125, 134.00006103515625)"><g id="tx_usernavi_1urst8av52tc4-fill" stroke="none" fill="#969696"><g><text style="font: 20px Roboto, sans-serif; white-space: pre;" font-size="20px" font-family="Roboto, sans-serif"><tspan x="12" y="34" dominant-baseline="ideographic">User Navigates </tspan><tspan x="12" y="58" dominant-baseline="ideographic">to Login Page</tspan></text></g></g></g><g id="g-root-ic_aler_4otxbuv4ylfz-fill" data-item-order="2000000000" transform="translate(26, 1267.3818359375)"></g><g id="g-root-ic_logo_18mkpvev52upx-fill" data-item-order="2000000000" transform="translate(393.882080078125, 143.00006103515625)"></g><g id="g-root-tx_otpsentv_1heh52yv4x7ny-fill" data-item-order="2000000000" transform="translate(429.882080078125, 718)"><g id="tx_otpsentv_1heh52yv4x7ny-fill" stroke="none" fill="#1eabda"><g><text style="font: 20px Roboto, sans-serif; white-space: pre;" font-size="20px" font-family="Roboto, sans-serif"><tspan x="12" y="34" dominant-baseline="ideographic">OTP Sent via </tspan><tspan x="12" y="58" dominant-baseline="ideographic">SMS</tspan></text></g></g></g><g id="g-root-di_qn6sqiv4x899-stroke" data-item-order="999966618" transform="translate(89.99905395507812, 701.029052734375)"><g id="di_qn6sqiv4x899-stroke" fill="none" stroke-linecap="round" stroke-linejoin="round" stroke-miterlimit="4" stroke="#de8431" stroke-width="2"><g><path d="M 10.000946 68.791008L 151.940946 127.591008L 293.880946 68.791008L 151.940946 10.001008Z"></path></g></g></g><g id="g-root-di_qu20oqv4x6oa-stroke" data-item-order="999966619" transform="translate(625.8822631835938, 701.029296875)"><g id="di_qu20oqv4x6oa-stroke" fill="none" stroke-linecap="round" stroke-linejoin="round" stroke-miterlimit="4" stroke="#de8431" stroke-width="2"><g><path d="M 10 68.790244L 151.94 127.590244L 293.88 68.790244L 151.94 10.000244Z"></path></g></g></g><g id="g-root-ro_1q9herev55p1l-stroke" data-item-order="999979264" transform="translate(375.882080078125, 274)"><g id="ro_1q9herev55p1l-stroke" fill="none" stroke-linecap="round" stroke-linejoin="round" stroke-miterlimit="4" stroke="#1eabda" stroke-width="2"><g><path d="M 22 10L 214 10C 214 10 226 10 226 22L 226 94C 226 94 226 106 214 106L 22 106C 22 106 10 106 10 94L 10 22C 10 22 10 10 22 10"></path></g></g></g><g id="g-root-ro_1hjgoaiv52vbi-stroke" data-item-order="999980416" transform="translate(381.882080078125, 122)"><g id="ro_1hjgoaiv52vbi-stroke" fill="none" stroke-linecap="round" stroke-linejoin="round" stroke-miterlimit="4" stroke="#484848" stroke-width="2"><g><path d="M 22 10L 202 10C 202 10 214 10 214 22L 214 94C 214 94 214 106 202 106L 22 106C 22 106 10 106 10 94L 10 22C 10 22 10 10 22 10"></path></g></g></g><g id="g-root-ro_4otxbuv4vuo3-stroke" data-item-order="999980416" transform="translate(671.8232421875, 554)"><g id="ro_4otxbuv4vuo3-stroke" fill="none" stroke-linecap="round" stroke-linejoin="round" stroke-miterlimit="4" stroke="#1eabda" stroke-width="2"><g><path d="M 22 10L 202 10C 202 10 214 10 214 22L 214 94C 214 94 214 106 202 106L 22 106C 22 106 10 106 10 94L 10 22C 10 22 10 10 22 10"></path></g></g></g><g id="g-root-ro_1lsf7y2v4ym19-stroke" data-item-order="999982720" transform="translate(345.882080078125, 1234.3818359375)"><g id="ro_1lsf7y2v4ym19-stroke" fill="none" stroke-linecap="round" stroke-linejoin="round" stroke-miterlimit="4" stroke="#1eabda" stroke-width="2"><g><path d="M 22 10L 178 10C 178 10 190 10 190 22L 190 94C 190 94 190 106 178 106L 22 106C 22 106 10 106 10 94L 10 22C 10 22 10 10 22 10"></path></g></g></g><g id="g-root-ro_v64oaiv4orut-stroke" data-item-order="999982720" transform="translate(141.9410400390625, 554)"><g id="ro_v64oaiv4orut-stroke" fill="none" stroke-linecap="round" stroke-linejoin="round" stroke-miterlimit="4" stroke="#1eabda" stroke-width="2"><g><path d="M 22 10L 178 10C 178 10 190 10 190 22L 190 94C 190 94 190 106 178 106L 22 106C 22 106 10 106 10 94L 10 22C 10 22 10 10 22 10"></path></g></g></g><g id="g-root-ro_1hjgxruv4yl8g-stroke" data-item-order="999985024" transform="translate(14, 1234.3818359375)"><g id="ro_1hjgxruv4yl8g-stroke" fill="none" stroke-linecap="round" stroke-linejoin="round" stroke-miterlimit="4" stroke="#1eabda" stroke-width="2"><g><path d="M 22 10L 154 10C 154 10 166 10 166 22L 166 94C 166 94 166 106 154 106L 22 106C 22 106 10 106 10 94L 10 22C 10 22 10 10 22 10"></path></g></g></g><g id="g-root-ro_1ur6lmiv4x894-stroke" data-item-order="999986176" transform="translate(381.882080078125, 706)"><g id="ro_1ur6lmiv4x894-stroke" fill="none" stroke-linecap="round" stroke-linejoin="round" stroke-miterlimit="4" stroke="#1eabda" stroke-width="2"><g><path d="M 22 10L 190 10C 190 10 202 10 202 22L 202 70C 202 70 202 82 190 82L 22 82C 22 82 10 82 10 70L 10 22C 10 22 10 10 22 10"></path></g></g></g><g id="g-root-ro_1ulkbuiv4q8lk-stroke" data-item-order="999986176" transform="translate(405.882080078125, 554)"><g id="ro_1ulkbuiv4q8lk-stroke" fill="none" stroke-linecap="round" stroke-linejoin="round" stroke-miterlimit="4" stroke="#1eabda" stroke-width="2"><g><path d="M 22 10L 142 10C 142 10 154 10 154 22L 154 94C 154 94 154 106 142 106L 22 106C 22 106 10 106 10 94L 10 22C 10 22 10 10 22 10"></path></g></g></g><g id="g-root-ro_1d30p2yv573f3-stroke" data-item-order="999987040" transform="translate(393.882080078125, 426)"><g id="ro_1d30p2yv573f3-stroke" fill="none" stroke-linecap="round" stroke-linejoin="round" stroke-miterlimit="4" stroke="#1eabda" stroke-width="2"><g><path d="M 22 10L 178 10C 178 10 190 10 190 22L 190 70C 190 70 190 82 178 82L 22 82C 22 82 10 82 10 70L 10 22C 10 22 10 10 22 10"></path></g></g></g><g id="g-root-ro_4myi2iv500lf-stroke" data-item-order="999987040" transform="translate(102, 925.646728515625)"><g id="ro_4myi2iv500lf-stroke" fill="none" stroke-linecap="round" stroke-linejoin="round" stroke-miterlimit="4" stroke="#1eabda" stroke-width="2"><g><path d="M 22 10L 178 10C 178 10 190 10 190 22L 190 70C 190 70 190 82 178 82L 22 82C 22 82 10 82 10 70L 10 22C 10 22 10 10 22 10"></path></g></g></g><g id="g-root-ro_4mybqyv4lyiq-stroke" data-item-order="999987040" transform="translate(683.8232421875, 426)"><g id="ro_4mybqyv4lyiq-stroke" fill="none" stroke-linecap="round" stroke-linejoin="round" stroke-miterlimit="4" stroke="#1eabda" stroke-width="2"><g><path d="M 22 10L 178 10C 178 10 190 10 190 22L 190 70C 190 70 190 82 178 82L 22 82C 22 82 10 82 10 70L 10 22C 10 22 10 10 22 10"></path></g></g></g><g id="g-root-ro_4jtv5mv5711o-stroke" data-item-order="999987040" transform="translate(147.9410400390625, 426)"><g id="ro_4jtv5mv5711o-stroke" fill="none" stroke-linecap="round" stroke-linejoin="round" stroke-miterlimit="4" stroke="#1eabda" stroke-width="2"><g><path d="M 22 10L 178 10C 178 10 190 10 190 22L 190 70C 190 70 190 82 178 82L 22 82C 22 82 10 82 10 70L 10 22C 10 22 10 10 22 10"></path></g></g></g><g id="g-root-di_uxoavelkw0-stroke" data-item-order="999988594" transform="translate(231.940673828125, 1081.646728515625)"><g id="di_uxoavelkw0-stroke" fill="none" stroke-linecap="round" stroke-linejoin="round" stroke-miterlimit="4" stroke="#de8431" stroke-width="2"><g><path d="M 10.000244 44.37L 92.970244 78.74L 175.940244 44.37L 92.970244 10Z"></path></g></g></g><g id="g-root-ro_zs6xa2v573m6-stroke" data-item-order="999989632" transform="translate(290, 925.646728515625)"><g id="ro_zs6xa2v573m6-stroke" fill="none" stroke-linecap="round" stroke-linejoin="round" stroke-miterlimit="4" stroke="#1eabda" stroke-width="2"><g><path d="M 22 10L 142 10C 142 10 154 10 154 22L 154 70C 154 70 154 82 142 82L 22 82C 22 82 10 82 10 70L 10 22C 10 22 10 10 22 10"></path></g></g></g><g id="g-root-tx_no_4mapkqvepszp-stroke" data-item-order="1000000000" transform="translate(195.94091796875, 1128.01416015625)"></g><g id="g-root-tx_userauth_hsrf96ver6yw-stroke" data-item-order="1000000000" transform="translate(287.8822021484375, 38)"></g><g id="g-root-tx_yes_mcy8zeveptsc-stroke" data-item-order="1000000000" transform="translate(779.8232421875, 813.646728515625)"></g><g id="g-root-tx_yes_1luvsvuvepszm-stroke" data-item-order="1000000000" transform="translate(243.9410400390625, 813.646728515625)"></g><g id="g-root-tx_yes_1qckq9mvepr7q-stroke" data-item-order="1000000000" transform="translate(326.9114990234375, 1150.3818359375)"></g><g id="g-root-tx_no_zoercqveps7f-stroke" data-item-order="1000000000" transform="translate(601.882080078125, 771.8232421875)"></g><g id="g-root-tx_no_hvvsoqvepseh-stroke" data-item-order="1000000000" transform="translate(66, 771.8232421875)"></g><g id="g-root-cu_qwilmiveprt4-stroke" data-item-order="1000000002" transform="translate(767.8231811523438, 650)"><g id="cu_qwilmiveprt4-stroke" fill="none" stroke-linecap="round" stroke-linejoin="round" stroke-miterlimit="4" stroke="#484848" stroke-width="2"><g><path d="M 16.000061 10L 16.000061 22.8L 16.000061 35.5L 13.000061 35.5L 10.000061 35.5L 10.000061 48.3L 10.000061 59"></path><path d="M 3.500061 53L 10.000061 59.5L 16.500061 53" stroke-dasharray="none"></path></g></g></g><g id="g-root-cu_1qdtofuvepte7-stroke" data-item-order="1000000002" transform="translate(773.8232421875, 498)"><g id="cu_1qdtofuvepte7-stroke" fill="none" stroke-linecap="round" stroke-linejoin="round" stroke-miterlimit="4" stroke="#484848" stroke-width="2"><g><path d="M 10 10L 10 38L 10 64"></path><path d="M 3.5 58L 10 64.5L 16.5 58" stroke-dasharray="none"></path></g></g></g><g id="g-root-cu_8cmpmvepssk-stroke" data-item-order="1000000002" transform="translate(477.882080078125, 498)"><g id="cu_8cmpmvepssk-stroke" fill="none" stroke-linecap="round" stroke-linejoin="round" stroke-miterlimit="4" stroke="#484848" stroke-width="2"><g><path d="M 16 10L 16 24L 16 38L 13 38L 10 38L 10 52L 10 64"></path><path d="M 3.5 58L 10 64.5L 16.5 58" stroke-dasharray="none"></path></g></g></g><g id="g-root-cu_4o64u2veps09-stroke" data-item-order="1000000002" transform="translate(231.9410400390625, 498)"><g id="cu_4o64u2veps09-stroke" fill="none" stroke-linecap="round" stroke-linejoin="round" stroke-miterlimit="4" stroke="#484848" stroke-width="2"><g><path d="M 16 10L 16 24L 16 38L 13 38L 10 38L 10 52L 10 64"></path><path d="M 3.5 58L 10 64.5L 16.5 58" stroke-dasharray="none"></path></g></g></g><g id="g-root-cu_1cuvh16ver66h-stroke" data-item-order="1000000002" transform="translate(192, 997.646728515625)"><g id="cu_1cuvh16ver66h-stroke" fill="none" stroke-linecap="round" stroke-linejoin="round" stroke-miterlimit="4" stroke="#484848" stroke-width="2"><g><path d="M 10 10L 10 31L 10 52L 71.5 52L 132.9 52L 132.9 73L 132.9 92"></path><path d="M 126.4 86L 132.9 92.5L 139.4 86" stroke-dasharray="none"></path></g></g></g><g id="g-root-cu_vbpmnuvepu6l-stroke" data-item-order="1000000002" transform="translate(477.882080078125, 650)"><g id="cu_vbpmnuvepu6l-stroke" fill="none" stroke-linecap="round" stroke-linejoin="round" stroke-miterlimit="4" stroke="#484848" stroke-width="2"><g><path d="M 10 10L 10 38L 10 64"></path><path d="M 3.5 58L 10 64.5L 16.5 58" stroke-dasharray="none"></path></g></g></g><g id="g-root-cu_8gl6ver6dq-stroke" data-item-order="1000000002" transform="translate(70, 759.823486328125)"><g id="cu_8gl6ver6dq-stroke" fill="none" stroke-linecap="round" stroke-linejoin="round" stroke-miterlimit="4" stroke="#484848" stroke-width="2"><g><path d="M 30 9.999756L 20 9.999756L 10 9.999756L 10 233.299756L 10 456.599756L 21 456.599756L 32 456.599756L 32 470.599756L 32 482.599756"></path><path d="M 25.5 476.599756L 32 483.099756L 38.5 476.599756" stroke-dasharray="none"></path></g></g></g><g id="g-root-cu_1ly06bevepu6i-stroke" data-item-order="1000000002" transform="translate(231.9410400390625, 650)"><g id="cu_1ly06bevepu6i-stroke" fill="none" stroke-linecap="round" stroke-linejoin="round" stroke-miterlimit="4" stroke="#484848" stroke-width="2"><g><path d="M 10 10L 10 35.5L 10 59"></path><path d="M 3.5 53L 10 59.5L 16.5 53" stroke-dasharray="none"></path></g></g></g><g id="g-root-cu_1ha2i2iver8jy-stroke" data-item-order="1000000002" transform="translate(362, 759.823486328125)"><g id="cu_1ha2i2iver8jy-stroke" fill="none" stroke-linecap="round" stroke-linejoin="round" stroke-miterlimit="4" stroke="#484848" stroke-width="2"><g><path d="M 273.9 9.999756L 263.9 9.999756L 253.9 9.999756L 253.9 64.899756L 253.9 119.799756L 131.9 119.799756L 10 119.799756L 10 147.799756L 10 173.799756"></path><path d="M 3.5 167.799756L 10 174.299756L 16.5 167.799756" stroke-dasharray="none"></path></g></g></g><g id="g-root-cu_145h7neveptlb-stroke" data-item-order="1000000002" transform="translate(483.882080078125, 218)"><g id="cu_145h7neveptlb-stroke" fill="none" stroke-linecap="round" stroke-linejoin="round" stroke-miterlimit="4" stroke="#484848" stroke-width="2"><g><path d="M 10 10L 10 38L 10 64"></path><path d="M 3.5 58L 10 64.5L 16.5 58" stroke-dasharray="none"></path></g></g></g><g id="g-root-cu_1ulj0fuver6yx-stroke" data-item-order="1000000002" transform="translate(192, 778)"><g id="cu_1ulj0fuver6yx-stroke" fill="none" stroke-linecap="round" stroke-linejoin="round" stroke-miterlimit="4" stroke="#484848" stroke-width="2"><g><path d="M 295.9 10L 295.9 69.8L 295.9 129.6L 152.9 129.6L 10 129.6L 10 143.6L 10 155.6"></path><path d="M 3.5 149.6L 10 156.1L 16.5 149.6" stroke-dasharray="none"></path></g></g></g><g id="g-root-cu_hz064aveptl1-stroke" data-item-order="1000000002" transform="translate(483.882080078125, 370)"><g id="cu_hz064aveptl1-stroke" fill="none" stroke-linecap="round" stroke-linejoin="round" stroke-miterlimit="4" stroke="#484848" stroke-width="2"><g><path d="M 10 10L 10 38L 10 64"></path><path d="M 3.5 58L 10 64.5L 16.5 58" stroke-dasharray="none"></path></g></g></g><g id="g-root-cu_zjeynuver7ri-stroke" data-item-order="1000000002" transform="translate(92, 1116.0145263671875)"><g id="cu_zjeynuver7ri-stroke" fill="none" stroke-linecap="round" stroke-linejoin="round" stroke-miterlimit="4" stroke="#484848" stroke-width="2"><g><path d="M 149.9 9.999634L 91 9.999634L 32 9.999634L 32 55.199634L 32 100.399634L 21 100.399634L 10 100.399634L 10 114.399634L 10 126.399634"></path><path d="M 3.5 120.399634L 10 126.899634L 16.5 120.399634" stroke-dasharray="none"></path></g></g></g><g id="g-root-cu_mgp3i2vepslf-stroke" data-item-order="1000000002" transform="translate(73, 818.6177978515625)"><g id="cu_mgp3i2vepslf-stroke" fill="none" stroke-linecap="round" stroke-linejoin="round" stroke-miterlimit="4" stroke="#484848" stroke-width="2"><g><path d="M 168.9 9.999878L 168.9 50.799878L 168.9 91.499878L 89.5 91.499878L 10 91.499878L 10 231.899878L 10 372.199878L 191.4 372.199878L 372.9 372.199878L 372.9 398.999878L 372.9 423.799878"></path><path d="M 366.4 417.799878L 372.9 424.299878L 379.4 417.799878" stroke-dasharray="none"></path></g></g></g><g id="g-root-cu_meto8qvepssq-stroke" data-item-order="1000000002" transform="translate(237.9410400390625, 370)"><g id="cu_meto8qvepssq-stroke" fill="none" stroke-linecap="round" stroke-linejoin="round" stroke-miterlimit="4" stroke="#484848" stroke-width="2"><g><path d="M 255.9 10L 255.9 24L 255.9 38L 133 38L 10 38L 10 52L 10 64"></path><path d="M 3.5 58L 10 64.5L 16.5 58" stroke-dasharray="none"></path></g></g></g><g id="g-root-cu_18f1ywqver6ys-stroke" data-item-order="1000000002" transform="translate(314.9114990234375, 1150.3822021484375)"><g id="cu_18f1ywqver6ys-stroke" fill="none" stroke-linecap="round" stroke-linejoin="round" stroke-miterlimit="4" stroke="#484848" stroke-width="2"><g><path d="M 10 9.999634L 10 30.999634L 10 51.999634L 70.5 51.999634L 131 51.999634L 131 72.999634L 131 91.999634"></path><path d="M 124.5 85.999634L 131 92.499634L 137.5 85.999634" stroke-dasharray="none"></path></g></g></g><g id="g-root-cu_1q5pibever7r8-stroke" data-item-order="1000000002" transform="translate(435.882080078125, 818.6175537109375)"><g id="cu_1q5pibever7r8-stroke" fill="none" stroke-linecap="round" stroke-linejoin="round" stroke-miterlimit="4" stroke="#484848" stroke-width="2"><g><path d="M 341.9 9.999756L 341.9 22.799756L 341.9 35.499756L 192.5 35.499756L 43.1 35.499756L 43.1 141.499756L 43.1 247.499756L 26.6 247.499756L 10 247.499756L 10 336.599756L 10 423.799756"></path><path d="M 3.5 417.799756L 10 424.299756L 16.5 417.799756" stroke-dasharray="none"></path></g></g></g><g id="g-root-cu_93zmyivepr7z-stroke" data-item-order="1000000002" transform="translate(483.882080078125, 370)"><g id="cu_93zmyivepr7z-stroke" fill="none" stroke-linecap="round" stroke-linejoin="round" stroke-miterlimit="4" stroke="#484848" stroke-width="2"><g><path d="M 10 10L 10 24L 10 38L 155 38L 299.9 38L 299.9 52L 299.9 64"></path><path d="M 293.4 58L 299.9 64.5L 306.4 58" stroke-dasharray="none"></path></g></g></g><g id="g-root-tx_authenti_1qf3y0qv4vsw4-stroke" data-item-order="2000000000" transform="translate(159.94113159179688, 735.823486328125)"></g><g id="g-root-ic_time_mcd3ayv4x8g7-stroke" data-item-order="2000000000" transform="translate(393.882080078125, 727)"><g id="ic_time_mcd3ayv4x8g7-stroke" fill="none" stroke-linecap="round" stroke-linejoin="round" stroke-miterlimit="4" stroke="#1eabda" stroke-width="2"><g><path d="M 38.099876 21.633787L 38.099876 14.497075C 38.099876 13.806713 37.540249 13.247075 36.849876 13.247075L 13.15185 13.247075C 12.4615 13.247075 11.90185 13.806713 11.90185 14.497075L 11.90185 22.354176C 11.90185 23.0445 12.4615 23.604124 13.15185 23.604124L 22.659624 23.604124M 31.321249 36.752502C 35.064484 36.752678 38.099072 33.718235 38.099072 29.974998C 38.099072 26.231764 35.064484 23.197323 31.321249 23.1975C 27.578014 23.197323 24.543427 26.231764 24.543427 29.974998C 24.543427 33.718235 27.578014 36.752678 31.321249 36.752502M 31.320751 26.909124L 31.320751 29.921875L 33.303875 31.905001M 16.926825 19.67395C 17.617476 19.67395 18.177362 19.114063 18.177362 18.423401C 18.177362 17.732738 17.617476 17.17285 16.926825 17.17285C 16.236162 17.17285 15.676275 17.732738 15.676275 18.423401C 15.676275 19.114063 16.236162 19.67395 16.926825 19.67395ZM 21.924376 19.67395C 22.615 19.67395 23.174875 19.114063 23.174875 18.423401C 23.174875 17.732738 22.615 17.17285 21.924376 17.17285C 21.233713 17.17285 20.673824 17.732738 20.673824 18.423401C 20.673824 19.114063 21.233713 19.67395 21.924376 19.67395ZM 26.924376 19.67395C 27.615 19.67395 28.174875 19.114063 28.174875 18.423401C 28.174875 17.732738 27.615 17.17285 26.924376 17.17285C 26.233751 17.17285 25.673874 17.732738 25.673874 18.423401C 25.673874 19.114063 26.233751 19.67395 26.924376 19.67395Z"></path></g></g></g><g id="g-root-tx_authenti_1d0j27uv4x7gh-stroke" data-item-order="2000000000" transform="translate(695.8231201171875, 735.8233642578125)"></g><g id="g-root-tx_clickslo_1lxf0myv4vuo1-stroke" data-item-order="2000000000" transform="translate(719.8232421875, 578)"></g><g id="g-root-ic_2_i0afp6v4vt36-stroke" data-item-order="2000000000" transform="translate(683.8232421875, 587)"><g id="ic_2_i0afp6v4vt36-stroke" fill="none" stroke-linecap="round" stroke-linejoin="round" stroke-miterlimit="4" stroke="#1eabda" stroke-width="2"><g><path d="M 23.412498 15C 25.757191 17.208761 25.873455 20.897984 23.672501 23.25C 21.320559 25.45059 17.631916 25.334902 15.4225 22.991249C 13.076816 20.782749 12.961073 17.092403 15.16375 14.74125C 17.514744 12.53941 21.204128 12.65514 23.4125 15ZM 18.657499 13.125L 27.41625 13.125M 10.65625 34.2925C 10.655343 37.094337 14.577035 39.365952 19.415001 39.365952C 24.252966 39.365952 28.174656 37.094337 28.17375 34.2925C 28.174656 31.490665 24.252966 29.219049 19.415001 29.219049C 14.577035 29.219049 10.655343 31.490665 10.65625 34.2925ZM 22.57375 24.092501C 20.756248 28.68125 28.17375 27.29875 28.17375 34.2925M 34.3825 16.25L 34.3825 27.5M 40.0075 21.875L 28.7575 21.875"></path></g></g></g><g id="g-root-ic_numb_dbqad6v4q6fj-stroke" data-item-order="2000000000" transform="translate(417.882080078125, 587)"><g id="ic_numb_dbqad6v4q6fj-stroke" fill="none" stroke-linecap="round" stroke-linejoin="round" stroke-miterlimit="4" stroke="#1eabda" stroke-width="2"><g><path d="M 16.687475 11.687537C 14.437475 12.187537 12.937475 14.187537 12.937475 16.437538L 12.937475 17.437538C 12.937475 18.312538 13.687475 19.062538 14.562475 19.062538L 18.562475 19.062538C 19.437475 19.062538 20.187475 18.312538 20.187475 17.437538C 20.187475 16.562538 20.937475 15.812538 21.812475 15.812538L 28.3125 15.812538C 29.1875 15.812538 29.9375 16.562538 29.9375 17.437538C 29.9375 18.312538 30.6875 19.062538 31.5625 19.062538L 35.5625 19.062538C 36.4375 19.062538 37.1875 18.312538 37.1875 17.437538L 37.1875 16.437538C 37.1875 14.187537 35.5625 12.187537 33.4375 11.687537C 28.5625 10.687539 21.437475 10.687539 16.687475 11.687537ZM 16.937489 29.5625L 14.0625 29.5625C 13.3125 29.5625 12.8125 29.0625 12.8125 28.3125L 12.8125 25.4375C 12.8125 24.6875 13.3125 24.1875 14.0625 24.1875L 16.937489 24.1875C 17.687489 24.1875 18.187489 24.6875 18.187489 25.4375L 18.187489 28.3125C 18.187489 29.0625 17.687489 29.5625 16.937489 29.5625ZM 26.4375 29.5625L 23.5625 29.5625C 22.8125 29.5625 22.31255 29.0625 22.31255 28.3125L 22.31255 25.4375C 22.31255 24.6875 22.8125 24.1875 23.5625 24.1875L 26.4375 24.1875C 27.1875 24.1875 27.6875 24.6875 27.6875 25.4375L 27.6875 28.3125C 27.6875 29.0625 27.0625 29.5625 26.4375 29.5625ZM 35.9375 29.5625L 33.0625 29.5625C 32.3125 29.5625 31.8125 29.0625 31.8125 28.3125L 31.8125 25.4375C 31.8125 24.6875 32.3125 24.1875 33.0625 24.1875L 35.9375 24.1875C 36.6875 24.1875 37.1875 24.6875 37.1875 25.4375L 37.1875 28.3125C 37.1875 29.0625 36.5625 29.5625 35.9375 29.5625ZM 16.937489 39.0625L 14.0625 39.0625C 13.3125 39.0625 12.8125 38.5625 12.8125 37.8125L 12.8125 34.9375C 12.8125 34.1875 13.3125 33.6875 14.0625 33.6875L 16.937489 33.6875C 17.687489 33.6875 18.187489 34.1875 18.187489 34.9375L 18.187489 37.8125C 18.187489 38.4375 17.687489 39.0625 16.937489 39.0625ZM 26.4375 39.0625L 23.5625 39.0625C 22.8125 39.0625 22.31255 38.5625 22.31255 37.8125L 22.31255 34.9375C 22.31255 34.1875 22.8125 33.6875 23.5625 33.6875L 26.4375 33.6875C 27.1875 33.6875 27.6875 34.1875 27.6875 34.9375L 27.6875 37.8125C 27.6875 38.4375 27.0625 39.0625 26.4375 39.0625ZM 35.9375 39.0625L 33.0625 39.0625C 32.3125 39.0625 31.8125 38.5625 31.8125 37.8125L 31.8125 34.9375C 31.8125 34.1875 32.3125 33.6875 33.0625 33.6875L 35.9375 33.6875C 36.6875 33.6875 37.1875 34.1875 37.1875 34.9375L 37.1875 37.8125C 37.1875 38.4375 36.5625 39.0625 35.9375 39.0625Z"></path></g></g></g><g id="g-root-ic_pass_1cws7p6v4osng-stroke" data-item-order="2000000000" transform="translate(153.9410400390625, 587)"><g id="ic_pass_1cws7p6v4osng-stroke" fill="none" stroke-linecap="round" stroke-linejoin="round" stroke-miterlimit="4" stroke="#1eabda" stroke-width="2"><g><path d="M 39.375 27.5L 39.375 34.375C 39.375 35.065353 38.815353 35.625 38.125 35.625L 11.875 35.625C 11.184644 35.625 10.625 35.065353 10.625 34.375L 10.625 18.125C 10.625 17.434645 11.184644 16.875 11.875 16.875L 25 16.875M 23.123749 35.625L 26.873749 35.625L 26.873749 39.375L 23.123749 39.375ZM 18.748751 39.375L 31.248751 39.375M 29.373749 15.625L 38.123749 15.625C 38.123749 15.625 39.373749 15.625 39.373749 16.875L 39.373749 21.25C 39.373749 21.25 39.373749 22.5 38.123749 22.5L 29.373749 22.5C 29.373749 22.5 28.123749 22.5 28.123749 21.25L 28.123749 16.875C 28.123749 16.875 28.123749 15.625 29.373749 15.625M 30.625 15.625L 30.625 13.75C 30.625 12.02411 32.024109 10.625 33.75 10.625C 35.475891 10.625 36.875 12.02411 36.875 13.75L 36.875 15.625M 14.41875 27.1875L 18.748751 29.6875M 18.748751 27.1875L 14.41875 29.6875M 16.58375 25.9375L 16.58375 30.9375M 22.83375 27.1875L 27.16375 29.6875M 27.16375 27.1875L 22.83375 29.6875M 24.998749 25.9375L 24.998749 30.9375M 31.248751 27.1875L 35.578751 29.6875M 35.578751 27.1875L 31.248751 29.6875M 33.41375 25.9375L 33.41375 30.9375"></path></g></g></g><g id="g-root-tx_entersph_1d30ykav4ou86-stroke" data-item-order="2000000000" transform="translate(453.882080078125, 566)"></g><g id="g-root-tx_entersem_htf7qyv4or9n-stroke" data-item-order="2000000000" transform="translate(189.9410400390625, 566)"></g><g id="g-root-tx_loginwit_18k2woqv4m03k-stroke" data-item-order="2000000000" transform="translate(731.8232421875, 438)"></g><g id="g-root-ic_goog_hxsd16v4m03l-stroke" data-item-order="2000000000" transform="translate(695.8232421875, 447)"><g id="ic_goog_hxsd16v4m03l-stroke" fill="none" stroke-linecap="round" stroke-linejoin="round" stroke-miterlimit="4" stroke="#1eabda" stroke-width="2"><g><path d="M 25 39.375C 18.437656 39.375237 12.708213 34.931244 11.076145 28.575089C 9.444078 22.218935 12.323756 15.564383 18.074417 12.403014C 23.825077 9.241646 30.986683 10.376101 35.478752 15.16L 31.835001 18.5825C 30.068806 16.686621 27.59108 15.614511 25 15.625C 20.234913 15.635127 16.235447 19.218134 15.70352 23.953449C 15.171593 28.688765 18.276442 33.069813 22.920525 34.13689C 27.564606 35.203968 32.270374 32.617573 33.858753 28.125002L 26.875 28.125L 26.875 23.125L 39.375 23.125L 39.375 25.75C 38.975605 33.394772 32.65519 39.385426 25 39.375ZM 16.875 20.25L 12.935 17.098749M 16.975 29.785L 13.18375 33.197502M 30.588751 32.536247L 33.92625 36.2925"></path></g></g></g><g id="g-root-ic_1_hxsjcqv5026a-stroke" data-item-order="2000000000" transform="translate(114, 946.646728515625)"><g id="ic_1_hxsjcqv5026a-stroke" fill="none" stroke-linecap="round" stroke-linejoin="round" stroke-miterlimit="4" stroke="#1eabda" stroke-width="2"><g><path d="M 11.9025 17.5L 38.0975 17.5C 38.0975 17.5 39.3475 17.5 39.3475 18.75L 39.3475 31.25C 39.3475 31.25 39.3475 32.5 38.0975 32.5L 11.9025 32.5C 11.9025 32.5 10.6525 32.5 10.6525 31.25L 10.6525 18.75C 10.6525 18.75 10.6525 17.5 11.9025 17.5M 28.0975 17.8125L 28.0975 32.5M 31.9025 23.75L 33.7775 26.25L 35.6525 23.75"></path></g></g></g><g id="g-root-tx_entersot_zp2juiv4zzt5-stroke" data-item-order="2000000000" transform="translate(150, 949.646728515625)"></g><g id="g-root-ic_add_1lzafwav5718l-stroke" data-item-order="2000000000" transform="translate(302, 946.646728515625)"><g id="ic_add_1lzafwav5718l-stroke" fill="none" stroke-linecap="round" stroke-linejoin="round" stroke-miterlimit="4" stroke="#1eabda" stroke-width="2"><g><path d="M 21.875 30.625L 10.625 30.625C 11.15375 27.7675 11.06625 26.15 12.63625 25.477501L 18.125 23.125L 18.125 20.625C 18.125 20.625 16.94375 20.1875 16.94375 17.5C 15.7175 17.5 15.7175 15 16.94375 15C 16.94375 14.639999 14.88875 11.9625 17.471251 12.5C 18.084999 10 24.135 10 24.748749 12.5C 24.910706 13.373416 24.712313 14.275198 24.19875 15C 25.387501 15 25.0625 17.5 24.2075 17.5C 24.2075 20.1875 23.125 20.625 23.125 20.625L 23.125 23.125L 25 23.928749M 24.375 31.875C 24.375002 36.017136 27.732864 39.375 31.875 39.375C 36.017136 39.375 39.375 36.017136 39.375 31.875C 39.375 27.732864 36.017136 24.375002 31.875 24.375002C 27.732864 24.375002 24.375002 27.732864 24.375002 31.875ZM 10 10M 31.875 28.125L 31.875 35.625M 10 10M 35.625 31.875L 28.125 31.875"></path></g></g></g><g id="g-root-tx_profilec_i0afp6v570ng-stroke" data-item-order="2000000000" transform="translate(338, 937.646728515625)"></g><g id="g-root-ic_1_905q2v5718m-stroke" data-item-order="2000000000" transform="translate(405.882080078125, 447)"><g id="ic_1_905q2v5718m-stroke" fill="none" stroke-linecap="round" stroke-linejoin="round" stroke-miterlimit="4" stroke="#1eabda" stroke-width="2"><g><path d="M 29.6875 34.375L 13.4375 34.375M 21.5625 36.5625L 21.5625 36.5625C 21.735088 36.5625 21.875 36.702412 21.875 36.875L 21.875 36.875C 21.875 37.047588 21.735088 37.1875 21.5625 37.1875L 21.5625 37.1875C 21.389912 37.1875 21.25 37.047588 21.25 36.875L 21.25 36.875C 21.25 36.702412 21.389912 36.5625 21.5625 36.5625M 29.6875 28.125L 29.6875 36.875C 29.6875 38.255714 28.568213 39.375 27.1875 39.375L 15.9375 39.375C 14.556788 39.375 13.4375 38.255714 13.4375 36.875L 13.4375 13.125C 13.4375 11.744288 14.556788 10.625 15.9375 10.625L 24.0625 10.625M 25.3125 15.7825L 34.0625 15.7825C 34.0625 15.7825 35.3125 15.7825 35.3125 17.032499L 35.3125 24.375C 35.3125 24.375 35.3125 25.625 34.0625 25.625L 25.3125 25.625C 25.3125 25.625 24.0625 25.625 24.0625 24.375L 24.0625 17.032499C 24.0625 17.032499 24.0625 15.7825 25.3125 15.7825M 29.6875 10.625L 29.6875 10.625C 27.616432 10.625 25.9375 12.303932 25.9375 14.375L 25.9375 15.7825L 33.4375 15.7825L 33.4375 14.375C 33.4375 12.303932 31.758568 10.625 29.6875 10.625ZM 28.125 20.703751C 28.125 21.566694 28.824556 22.266251 29.6875 22.266251C 30.550444 22.266251 31.25 21.566694 31.25 20.703751C 31.25 19.840805 30.550444 19.141251 29.6875 19.141251C 28.824556 19.141251 28.125 19.840805 28.125 20.703751"></path></g></g></g><g id="g-root-ic_lock_1414xyyv573er-stroke" data-item-order="2000000000" transform="translate(159.9410400390625, 447)"><g id="ic_lock_1414xyyv573er-stroke" fill="none" stroke-linecap="round" stroke-linejoin="round" stroke-miterlimit="4" stroke="#1eabda" stroke-width="2"><g><path d="M 29.375 29.376251L 38.125 29.376251C 38.125 29.376251 39.375 29.376251 39.375 30.626249L 39.375 38.125C 39.375 38.125 39.375 39.375 38.125 39.375L 29.375 39.375C 29.375 39.375 28.125 39.375 28.125 38.125L 28.125 30.626249C 28.125 30.626249 28.125 29.376251 29.375 29.376251M 32.1875 34.453751C 32.1875 35.316696 32.887054 36.016251 33.75 36.016251C 34.612946 36.016251 35.3125 35.316696 35.3125 34.453751C 35.3125 33.590805 34.612946 32.891251 33.75 32.891251C 32.887054 32.891251 32.1875 33.590805 32.1875 34.453751M 36.875 27.5C 36.875 25.774111 35.475891 24.375 33.75 24.375C 32.024109 24.375 30.625 25.774111 30.625 27.5L 30.625 29.375L 36.875 29.375ZM 25.625 28.125L 12.5 28.125C 11.464466 28.125 10.625 27.285534 10.625 26.25L 10.625 12.5C 10.625 11.464466 11.464466 10.625 12.5 10.625L 35 10.625C 36.035534 10.625 36.875 11.464466 36.875 12.5L 36.875 21.875M 36.333748 11.1825L 23.75 21.25L 11.16625 11.1825"></path></g></g></g><g id="g-root-tx_loginwit_qvapdmv5718l-stroke" data-item-order="2000000000" transform="translate(441.882080078125, 438)"></g><g id="g-root-tx_otpvalid_m7bz7evelkwf-stroke" data-item-order="2000000000" transform="translate(260.9115295410156, 1104.0142822265625)"></g><g id="g-root-tx_loginwit_8xry0qv5720y-stroke" data-item-order="2000000000" transform="translate(195.9410400390625, 438)"></g><g id="g-root-ic_onli_8xs7i2v4yn0k-stroke" data-item-order="2000000000" transform="translate(357.882080078125, 1267.3818359375)"><g id="ic_onli_8xs7i2v4yn0k-stroke" fill="none" stroke-linecap="round" stroke-linejoin="round" stroke-miterlimit="4" stroke="#1eabda" stroke-width="2"><g><path d="M 29.63875 30.786249C 29.63875 31.840422 30.493326 32.695 31.547499 32.695C 32.601673 32.695 33.456249 31.840422 33.456249 30.786249C 33.456249 29.732077 32.601673 28.877499 31.547499 28.877499C 30.493326 28.877499 29.63875 29.732077 29.63875 30.786249M 33.168751 23.4025L 33.731251 25.25C 33.922451 25.88726 34.575386 26.266773 35.223747 26.1175L 37.098751 25.682499C 37.828056 25.516403 38.580406 25.845407 38.953609 26.493631C 39.326813 27.141857 39.233582 27.957689 38.723751 28.505001L 37.412498 29.918751C 36.959721 30.407982 36.959721 31.163269 37.412498 31.6525L 38.723751 33.06625C 39.233582 33.613564 39.326813 34.429394 38.953609 35.077621C 38.580406 35.725845 37.828056 36.054848 37.098751 35.888752L 35.223751 35.455002C 34.575752 35.305618 33.92297 35.684494 33.731251 36.321251L 33.168751 38.169998C 32.952652 38.884647 32.294106 39.373508 31.547501 39.373508C 30.800896 39.373508 30.142347 38.884647 29.92625 38.169998L 29.362499 36.321251C 29.17078 35.684494 28.517998 35.305618 27.869999 35.455002L 25.994999 35.888752C 25.26516 36.056808 24.511206 35.72818 24.137526 35.079124C 23.763844 34.430069 23.858206 33.613037 24.369999 33.06625L 25.68125 31.6525C 26.134029 31.163269 26.134029 30.407982 25.68125 29.918751L 24.375 28.5C 23.863205 27.953211 23.768843 27.136181 24.142525 26.487125C 24.516205 25.83807 25.270159 25.509441 26 25.6775L 27.875 26.112501C 28.520247 26.259254 29.169323 25.8829 29.362499 25.25L 29.92625 23.4025C 30.140877 22.686384 30.799911 22.195906 31.547501 22.195906C 32.29509 22.195906 32.954124 22.686384 33.168751 23.4025ZM 20.22875 39.256252L 21.182501 33.529999M 17.365 39.256252L 26.272499 39.256252M 21.20875 33.529999L 14.5 33.529999C 12.39263 33.528618 10.684999 31.81987 10.685 29.7125L 10.685 14.4425C 10.684999 12.335129 12.39263 10.62638 14.5 10.625L 35.5 10.625C 37.608345 10.625 39.317501 12.334153 39.317497 14.4425L 39.317501 21.758749M 20.705 15.92125L 17.9925 19.5375C 17.826414 19.758406 17.572773 19.896526 17.297098 19.916183C 17.021421 19.935841 16.75075 19.835106 16.555 19.639999L 15.0825 18.1675M 20.705 23.237499L 17.9925 26.85375C 17.826916 27.075382 17.573149 27.214071 17.297192 27.233747C 17.021235 27.253424 16.750357 27.152145 16.555 26.956251L 15.0825 25.484999M 26.272499 17.305L 33.271252 17.305"></path></g></g></g><g id="g-root-ic_orde_qqawoqv55og0-stroke" data-item-order="2000000000" transform="translate(387.882080078125, 307)"><g id="ic_orde_qqawoqv55og0-stroke" fill="none" stroke-linecap="round" stroke-linejoin="round" stroke-miterlimit="4" stroke="#1eabda" stroke-width="2"><g><path d="M 10 10M 38.4925 39.334999L 38.642498 37.653748C 38.846382 35.402493 37.34853 33.349365 35.142502 32.856251L 30.8475 31.465L 30.8475 25.77375C 30.8475 24.531109 29.840141 23.52375 28.5975 23.52375C 27.35486 23.52375 26.3475 24.531109 26.3475 25.77375L 26.3475 37.08625L 23.799999 35.171249C 22.885931 34.482677 21.604366 34.572266 20.794994 35.381325C 19.985622 36.190384 19.895531 37.471916 20.58375 38.38625L 21.295 39.334999M 23.526251 28.085001L 13.21375 28.085001C 12.178216 28.085001 11.33875 27.245535 11.33875 26.210001L 11.33875 13.085C 11.33875 12.049466 12.178216 11.21 13.21375 11.21L 16.963751 11.21M 30.088749 11.21L 33.838749 11.21C 34.874283 11.21 35.713753 12.049466 35.713753 13.085L 35.713749 26.210001C 35.713753 27.245535 34.874283 28.085001 33.838753 28.085001M 10 10M 14.80375 20.536249L 15.96125 22.27125C 16.26635 22.728888 16.779982 23.003763 17.33 23.00375L 23.526251 23.00375M 13.98125 20.536249L 32.901249 20.536249M 22.2075 11.89875C 22.207335 12.580249 22.75975 13.1328 23.44125 13.1328C 24.122749 13.1328 24.675165 12.580249 24.674999 11.89875C 24.675165 11.217252 24.122749 10.6647 23.44125 10.6647C 22.75975 10.6647 22.207335 11.217252 22.2075 11.89875M 16.0375 20.536249C 16.036974 16.446899 19.3519 13.131548 23.44125 13.131548C 27.5306 13.131548 30.845526 16.446899 30.844997 20.536249"></path></g></g></g><g id="g-root-tx_displays_1465056v4ynt2-stroke" data-item-order="2000000000" transform="translate(62, 1246.3818359375)"></g><g id="g-root-tx_selectsa_v48zjuv55onj-stroke" data-item-order="2000000000" transform="translate(423.882080078125, 286)"></g><g id="g-root-tx_redirect_13zw9a2v4ym8b-stroke" data-item-order="2000000000" transform="translate(393.882080078125, 1246.3818359375)"></g><g id="g-root-tx_usernavi_1urst8av52tc4-stroke" data-item-order="2000000000" transform="translate(429.882080078125, 134.00006103515625)"></g><g id="g-root-ic_aler_4otxbuv4ylfz-stroke" data-item-order="2000000000" transform="translate(26, 1267.3818359375)"><g id="ic_aler_4otxbuv4ylfz-stroke" fill="none" stroke-linecap="round" stroke-linejoin="round" stroke-miterlimit="4" stroke="#1eabda" stroke-width="2"><g><path d="M 31.797501 35.932499L 31.797501 35.932499M 31.797501 33.119999L 31.797501 29.370001M 32.844997 25.620001C 32.638519 25.233343 32.235836 24.991875 31.797501 24.991875C 31.359167 24.991875 30.956478 25.233343 30.75 25.620001L 24.43 37.6675C 24.240078 38.028416 24.25481 38.462784 24.46875 38.810001C 24.685287 39.15881 25.066944 39.370686 25.477501 39.369999L 38.1175 39.369999C 38.528057 39.370686 38.909714 39.15881 39.126251 38.810001C 39.340187 38.462784 39.354919 38.028416 39.164997 37.6675ZM 23.202499 31.875L 13.2025 31.875C 11.821788 31.875 10.7025 30.755713 10.7025 29.375L 10.7025 13.125C 10.7025 11.744288 11.821788 10.625 13.2025 10.625L 31.952499 10.625C 33.33321 10.625 34.452499 11.744288 34.452499 13.125L 34.452499 21.875M 17.668751 17.262501L 14.99125 19.9925L 17.668751 22.723749M 27.032501 17.262501L 29.709999 19.9925L 27.032501 22.723749M 20.70125 23.40625L 23.432501 17.262501"></path></g></g></g><g id="g-root-ic_logo_18mkpvev52upx-stroke" data-item-order="2000000000" transform="translate(393.882080078125, 143.00006103515625)"><g id="ic_logo_18mkpvev52upx-stroke" fill="none" stroke-linecap="round" stroke-linejoin="round" stroke-miterlimit="4" stroke="#969696" stroke-width="2"><g><path d="M 19.375 39.375L 20 31.875L 23.125 31.875L 23.125 27.5C 23.125 24.048222 20.32678 21.25 16.875 21.25C 13.423221 21.25 10.625 24.048222 10.625 27.5L 10.625 31.875L 13.75 31.875L 14.375 39.375ZM 12.5 15C 12.5 17.416246 14.458755 19.375 16.875 19.375C 19.291246 19.375 21.25 17.416246 21.25 15C 21.25 12.583755 19.291246 10.625 16.875 10.625C 14.458755 10.625 12.5 12.583755 12.5 15ZM 35.625 24.375L 39.375 20.625L 35.625 16.875M 26.875 20.625L 39.375 20.625"></path></g></g></g><g id="g-root-tx_otpsentv_1heh52yv4x7ny-stroke" data-item-order="2000000000" transform="translate(429.882080078125, 718)"></g></g></g><path id="w1d1r1m3w8zsaz" d="M65.283 12.757a.35.35 0 0 0 .584.157l5.203-5.141-6.183 3.523.396 1.461zm-2.216-11.7a.35.35 0 0 0-.522.305v3.111l3.276-1.868-2.754-1.548zm3.728 2.105l-4.25 2.421v2.445l6.391-3.644-2.141-1.222zm4.708 3.303a.35.35 0 0 0 0-.609l-1.592-.9-7.365 4.199v1.782a.35.35 0 0 0 .523.305l8.435-4.777z M44.542 2.513c0-.433.355-.783.792-.783s.792.35.792.783-.355.783-.792.783-.792-.35-.792-.783zm59.171 0c0-.433.355-.783.792-.783s.792.35.792.783-.355.783-.792.783-.792-.35-.792-.783zm-85.951 7.636h-1.27v-.487c-.276.201-.864.609-1.881.609-1.202 0-2.274-.794-2.137-2.078.118-1.106 1.153-1.584 1.848-1.727l2.17-.345c0-.539-.29-.956-1.064-1.006s-1.21.305-1.571 1.017l-1.124-.605c1.218-2.631 5.029-1.764 5.029.414v4.207zm-1.27-2.86c.006.396-.062 1.112-.819 1.59-.587.37-1.841.299-1.903-.395-.049-.555.461-.791.906-.898l1.816-.297zm72.662 2.86h-1.27v-.487c-.276.201-.864.609-1.881.609-1.202 0-2.274-.794-2.137-2.078.118-1.106 1.153-1.584 1.848-1.727l2.17-.345c0-.539-.29-.956-1.064-1.006s-1.21.305-1.571 1.017l-1.124-.605c1.218-2.631 5.029-1.764 5.029.414v4.207zm-1.27-2.86c.006.396-.062 1.112-.82 1.59-.587.37-1.841.299-1.903-.395-.049-.555.461-.791.906-.898l1.816-.297zM99.096 10.149H97.85v-8.45h1.246v4.895l2.68-2.559h1.738l-2.633 2.535 2.715 3.578h-1.556l-2.077-2.707-.867.844v1.863zm6.053-6.114h-1.255v6.113h1.255V4.035zm-59.2 0h-1.255v6.113h1.255V4.035zm5.584 6.113V1.697h1.255v2.695c.361-.346 1-.485 1.47-.485 1.452 0 2.477 1.082 2.457 2.448v3.792h-1.27v-3.68c0-.408-.214-1.339-1.315-1.339-.968 0-1.342.756-1.342 1.339v3.681h-1.255zm-4.76-4.894V4.039h.621a.45.45 0 0 0 .45-.45v-.855h1.251v1.305h1.309v1.215h-1.309v3.109c0 .293.105.664.648.664.365 0 .531-.035.736-.07v1.137s-.361.113-.857.113c-1.398 0-1.777-1.051-1.777-1.788V5.254h-1.071zM36.528 4.039h-1.394l2.191 6.106h1.125l1.234-3.918 1.238 3.918h1.129l2.188-6.106h-1.383l-1.359 3.93-1.256-3.93h-1.124l-1.242 3.957-1.348-3.957zM26.212 7.141c-.02 1.566 1.187 3.129 3.223 3.129 1.566 0 2.383-.918 2.734-1.719L31.172 8c-.315.399-.801 1.094-1.738 1.094-1.145 0-1.825-.781-1.891-1.52h4.625c.074-.284.148-.995-.03-1.559-.336-1.064-1.221-2.102-2.839-2.102s-3.088 1.152-3.088 3.227zm1.363-.75h3.348c-.055-.43-.566-1.301-1.623-1.301a1.79 1.79 0 0 0-1.725 1.301zm-8.758.75c.038 1.758 1.277 3.133 3.145 3.133 1.074 0 1.723-.477 1.961-.672v.547h1.242V1.703h-1.258v2.888c-.414-.36-1.062-.68-1.93-.68-1.91 0-3.198 1.473-3.16 3.23zm1.309-.08c0 1.119.723 1.978 1.836 1.978a1.88 1.88 0 0 0 1.94-1.904c0-1.371-1.011-1.99-1.972-1.99s-1.805.798-1.805 1.916zm76.683-.028C96.771 5.275 95.532 3.9 93.664 3.9c-1.074 0-1.723.477-1.961.672v-.547h-1.242v8.22h1.258V9.583c.414.36 1.063.68 1.93.68 1.91 0 3.198-1.473 3.16-3.23zm-1.309.08c0-1.119-.723-1.978-1.836-1.978a1.88 1.88 0 0 0-1.94 1.904c0 1.371 1.011 1.99 1.972 1.99S95.5 8.231 95.5 7.113zM106.441 10.173V4.036h1.254v.382c.361-.346 1-.485 1.47-.485 1.452 0 2.477 1.082 2.457 2.448v3.792h-1.27V6.492c0-.408-.214-1.339-1.315-1.339-.969 0-1.342.756-1.342 1.339v3.681h-1.254zm-30.383-.021V1.824h1.084l4.215 5.777V1.824h1.32v8.328h-1.094l-4.207-5.796v5.796h-1.319zM5.24 10.149H4V2.377h1.014l2.664 3.597 2.654-3.592h1.03v7.766h-1.256V4.762L7.678 8.068 5.24 4.742v5.407z" transform="translate(807.7640991210938, 1354.3818359375)" fill="#80808088" stroke="none"></path></svg>